<svg width="2258" height="615" viewBox="0 0 2258 615" fill="none" xmlns="http://www.w3.org/2000/svg">
<path d="M533.1 382V144H607.3C630.167 144 647.55 150.067 659.45 162.2C671.583 174.1 677.65 190.083 677.65 210.15V228.7C677.65 248.767 671.583 264.867 659.45 277C647.55 289.133 630.167 295.2 607.3 295.2H563.55V382H533.1ZM607.3 172.7H563.55V266.85H607.3C619.9 266.85 629.467 263.467 636 256.7C642.767 249.933 646.15 240.6 646.15 228.7V210.15C646.15 198.483 642.767 189.383 636 182.85C629.467 176.083 619.9 172.7 607.3 172.7ZM796.109 288.9V382H765.659V144H840.209C862.609 144 879.875 149.95 892.009 161.85C904.375 173.517 910.559 189.15 910.559 208.75V223.8C910.559 237.8 907.292 249.933 900.759 260.2C894.459 270.467 885.359 278.05 873.459 282.95C883.492 299.05 892.825 315.383 901.459 331.95C910.092 348.517 918.025 365.2 925.259 382H890.259C876.959 350.267 861.442 319.233 843.709 288.9H796.109ZM840.209 172H796.109V260.9H840.209C852.109 260.9 861.559 257.633 868.559 251.1C875.559 244.333 879.059 235.233 879.059 223.8V208.75C879.059 197.083 875.559 188.1 868.559 181.8C861.559 175.267 852.109 172 840.209 172ZM1172.91 236.75V288.9C1172.91 318.533 1165.45 342.1 1150.51 359.6C1135.81 376.867 1114.58 385.5 1086.81 385.5C1059.05 385.5 1037.7 376.867 1022.76 359.6C1008.06 342.1 1000.71 318.533 1000.71 288.9V236.75C1000.71 207.35 1008.06 184.017 1022.76 166.75C1037.7 149.25 1059.05 140.5 1086.81 140.5C1114.58 140.5 1135.81 149.25 1150.51 166.75C1165.45 184.017 1172.91 207.35 1172.91 236.75ZM1141.41 236.75C1141.41 215.05 1136.75 198.367 1127.41 186.7C1118.31 174.8 1104.78 168.85 1086.81 168.85C1069.08 168.85 1055.55 174.8 1046.21 186.7C1036.88 198.367 1032.21 215.05 1032.21 236.75V288.9C1032.21 310.833 1036.88 327.75 1046.21 339.65C1055.55 351.55 1069.08 357.5 1086.81 357.5C1104.78 357.5 1118.31 351.55 1127.41 339.65C1136.75 327.75 1141.41 310.833 1141.41 288.9V236.75ZM1272.48 382V144H1346.68C1369.54 144 1386.93 150.067 1398.83 162.2C1410.96 174.1 1417.03 190.083 1417.03 210.15V228.7C1417.03 248.767 1410.96 264.867 1398.83 277C1386.93 289.133 1369.54 295.2 1346.68 295.2H1302.93V382H1272.48ZM1346.68 172.7H1302.93V266.85H1346.68C1359.28 266.85 1368.84 263.467 1375.38 256.7C1382.14 249.933 1385.53 240.6 1385.53 228.7V210.15C1385.53 198.483 1382.14 189.383 1375.38 182.85C1368.84 176.083 1359.28 172.7 1346.68 172.7ZM1639.43 382V275.95H1535.48V382H1505.03V144H1535.48V247.25H1639.43V144H1669.88V382H1639.43ZM1911.95 353.65V382H1778.95V144H1908.45V172.7H1809.4V247.25H1897.95V275.95H1809.4V353.65H1911.95ZM1967.34 172.7V144H2136.39V172.7H2067.09V382H2036.64V172.7H1967.34Z" fill="#464646"/>
<path d="M1426.36 561L1418.24 536.5H1379.74L1371.76 561H1363.08L1394.72 465.8H1403.82L1435.6 561H1426.36ZM1388.42 510.18L1382.4 528.38H1415.44L1409.42 510.18L1398.92 477.7L1388.42 510.18ZM1468.71 561V465.8H1479.63C1485.7 474.947 1491.35 483.953 1496.57 492.82C1501.89 501.593 1506.98 510.553 1511.83 519.7C1516.69 528.847 1521.4 538.413 1525.97 548.4L1524.71 506.68V465.8H1533.81V561H1522.89C1515.89 545.973 1508.71 531.74 1501.33 518.3C1494.05 504.767 1486.03 491.187 1477.25 477.56L1477.81 520.26V561H1468.71ZM1630.32 561L1622.2 536.5H1583.7L1575.72 561H1567.04L1598.68 465.8H1607.78L1639.56 561H1630.32ZM1592.38 510.18L1586.36 528.38H1619.4L1613.38 510.18L1602.88 477.7L1592.38 510.18ZM1722.93 552.74V561H1672.67V465.8H1681.77V552.74H1722.93ZM1769.27 523.2V561H1760.17V523.2L1731.05 465.8H1740.85L1765.07 513.82L1788.87 465.8H1798.25L1769.27 523.2ZM1816.27 474.06V465.8H1882.49V474.06H1853.93V561H1844.83V474.06H1816.27ZM1923.52 561H1914.42V465.8H1923.52V561ZM1974.89 524.18C1974.89 544.153 1982.54 554.14 1997.85 554.14C2001.11 554.14 2004.33 553.767 2007.51 553.02C2010.68 552.273 2014.37 550.92 2018.57 548.96L2021.79 556.66C2017.59 558.62 2013.48 560.067 2009.47 561C2005.45 561.933 2001.53 562.4 1997.71 562.4C1987.25 562.4 1979.23 559.087 1973.63 552.46C1968.12 545.833 1965.37 536.407 1965.37 524.18V502.62C1965.37 490.393 1968.12 480.967 1973.63 474.34C1979.23 467.713 1987.25 464.4 1997.71 464.4C2001.53 464.4 2005.55 464.867 2009.75 465.8C2013.95 466.733 2017.96 468.18 2021.79 470.14L2018.71 477.84C2011.71 474.387 2004.71 472.66 1997.71 472.66C1982.49 472.66 1974.89 482.647 1974.89 502.62V524.18ZM2075.88 554.42C2082.13 554.42 2086.98 552.973 2090.44 550.08C2093.89 547.093 2095.62 542.8 2095.62 537.2C2095.62 532.533 2094.36 528.52 2091.84 525.16C2089.41 521.707 2085.44 519.233 2079.94 517.74L2068.74 514.66C2061.36 512.607 2056.04 509.433 2052.78 505.14C2049.51 500.847 2047.88 495.667 2047.88 489.6C2047.88 485.12 2048.76 480.967 2050.54 477.14C2052.31 473.313 2055.2 470.233 2059.22 467.9C2063.32 465.567 2068.88 464.4 2075.88 464.4C2079.89 464.4 2084.14 464.913 2088.62 465.94C2093.19 466.873 2097.72 468.413 2102.2 470.56L2099.12 478.4C2094.64 476.253 2090.48 474.713 2086.66 473.78C2082.83 472.847 2079.24 472.38 2075.88 472.38C2069.9 472.38 2065.28 473.687 2062.02 476.3C2058.75 478.913 2057.12 483.113 2057.12 488.9C2057.12 492.913 2058.19 496.413 2060.34 499.4C2062.48 502.293 2066.4 504.533 2072.1 506.12L2083.3 509.2C2090.48 511.16 2095.85 514.427 2099.4 519C2103.04 523.573 2104.86 529.267 2104.86 536.08C2104.86 543.827 2102.57 550.173 2098 555.12C2093.52 559.973 2086.14 562.4 2075.88 562.4C2071.49 562.4 2066.82 561.887 2061.88 560.86C2056.93 559.833 2051.98 558.2 2047.04 555.96L2049.98 548.26C2054.74 550.5 2059.17 552.087 2063.28 553.02C2067.38 553.953 2071.58 554.42 2075.88 554.42Z" fill="#464646"/>
<mask id="mask0_259_38" style="mask-type:alpha" maskUnits="userSpaceOnUse" x="0" y="145" width="1761" height="470">
<path d="M64.8763 234.853C64.8763 223.401 74.5583 214.118 86.5017 214.118H173.003C184.947 214.118 194.629 223.401 194.629 234.853C194.629 246.305 184.947 255.588 173.003 255.588H86.5017C74.5583 255.588 64.8763 246.305 64.8763 234.853Z" fill="url(#paint0_linear_259_38)"/>
<path d="M64.8763 234.853C64.8763 223.401 74.5583 214.118 86.5017 214.118H173.003C184.947 214.118 194.629 223.401 194.629 234.853C194.629 246.305 184.947 255.588 173.003 255.588H86.5017C74.5583 255.588 64.8763 246.305 64.8763 234.853Z" fill="black" fill-opacity="0.2"/>
<path d="M367.632 331.618C355.689 331.618 346.007 322.334 346.007 310.882V227.941C346.007 216.489 355.689 207.206 367.632 207.206C379.576 207.206 389.258 216.489 389.258 227.941V310.882C389.258 322.334 379.576 331.618 367.632 331.618Z" fill="url(#paint1_linear_259_38)"/>
<path d="M367.632 331.618C355.689 331.618 346.007 322.334 346.007 310.882V227.941C346.007 216.489 355.689 207.206 367.632 207.206C379.576 207.206 389.258 216.489 389.258 227.941V310.882C389.258 322.334 379.576 331.618 367.632 331.618Z" fill="black" fill-opacity="0.2"/>
<path d="M108.127 552.794C96.1837 552.794 86.5017 543.511 86.5017 532.059V449.118C86.5017 437.666 96.1837 428.382 108.127 428.382C120.071 428.382 129.753 437.666 129.753 449.118V532.059C129.753 543.511 120.071 552.794 108.127 552.794Z" fill="url(#paint2_linear_259_38)"/>
<path d="M108.127 552.794C96.1837 552.794 86.5017 543.511 86.5017 532.059V449.118C86.5017 437.666 96.1837 428.382 108.127 428.382C120.071 428.382 129.753 437.666 129.753 449.118V532.059C129.753 543.511 120.071 552.794 108.127 552.794Z" fill="black" fill-opacity="0.2"/>
<path d="M281.131 594.265C281.131 582.813 290.813 573.529 302.756 573.529C314.699 573.529 324.381 582.813 324.381 594.265C324.381 605.716 314.699 615 302.756 615C290.813 615 281.131 605.716 281.131 594.265Z" fill="url(#paint3_linear_259_38)"/>
<path d="M281.131 594.265C281.131 582.813 290.813 573.529 302.756 573.529C314.699 573.529 324.381 582.813 324.381 594.265C324.381 605.716 314.699 615 302.756 615C290.813 615 281.131 605.716 281.131 594.265Z" fill="black" fill-opacity="0.2"/>
<path d="M434.785 385.82C434.785 374.971 443.957 366.176 455.272 366.176C466.587 366.176 475.759 374.971 475.759 385.82V388.003C475.759 398.852 466.587 407.647 455.272 407.647C443.957 407.647 434.785 398.852 434.785 388.003V385.82Z" fill="url(#paint4_linear_259_38)"/>
<path d="M434.785 385.82C434.785 374.971 443.957 366.176 455.272 366.176C466.587 366.176 475.759 374.971 475.759 385.82V388.003C475.759 398.852 466.587 407.647 455.272 407.647C443.957 407.647 434.785 398.852 434.785 388.003V385.82Z" fill="black" fill-opacity="0.2"/>
<path d="M346.007 385.82C346.007 374.971 355.179 366.176 366.494 366.176C377.809 366.176 386.981 374.971 386.981 385.82V388.003C386.981 398.852 377.809 407.647 366.494 407.647C355.179 407.647 346.007 398.852 346.007 388.003V385.82Z" fill="url(#paint5_linear_259_38)"/>
<path d="M346.007 385.82C346.007 374.971 355.179 366.176 366.494 366.176C377.809 366.176 386.981 374.971 386.981 385.82V388.003C386.981 398.852 377.809 407.647 366.494 407.647C355.179 407.647 346.007 398.852 346.007 388.003V385.82Z" fill="black" fill-opacity="0.2"/>
<path d="M373.323 380H448.443V393.824H373.323V380Z" fill="url(#paint6_linear_259_38)"/>
<path d="M373.323 380H448.443V393.824H373.323V380Z" fill="black" fill-opacity="0.2"/>
<path d="M236.741 529.876C225.427 529.876 216.254 521.081 216.254 510.232C216.254 499.383 225.427 490.588 236.741 490.588H239.018C250.333 490.588 259.505 499.383 259.505 510.232C259.505 521.081 250.333 529.876 239.018 529.876H236.741Z" fill="url(#paint7_linear_259_38)"/>
<path d="M236.741 529.876C225.427 529.876 216.254 521.081 216.254 510.232C216.254 499.383 225.427 490.588 236.741 490.588H239.018C250.333 490.588 259.505 499.383 259.505 510.232C259.505 521.081 250.333 529.876 239.018 529.876H236.741Z" fill="black" fill-opacity="0.2"/>
<path d="M236.741 615C225.427 615 216.254 606.205 216.254 595.356C216.254 584.507 225.427 575.712 236.741 575.712H239.018C250.333 575.712 259.505 584.507 259.505 595.356C259.505 606.205 250.333 615 239.018 615H236.741Z" fill="url(#paint8_linear_259_38)"/>
<path d="M236.741 615C225.427 615 216.254 606.205 216.254 595.356C216.254 584.507 225.427 575.712 236.741 575.712H239.018C250.333 575.712 259.505 584.507 259.505 595.356C259.505 606.205 250.333 615 239.018 615H236.741Z" fill="black" fill-opacity="0.2"/>
<path d="M230.671 588.808V516.78H245.088V588.808H230.671Z" fill="url(#paint9_linear_259_38)"/>
<path d="M230.671 588.808V516.78H245.088V588.808H230.671Z" fill="black" fill-opacity="0.2"/>
<path d="M236.741 184.288C225.427 184.288 216.254 175.493 216.254 164.644C216.254 153.795 225.427 145 236.741 145H239.018C250.333 145 259.505 153.795 259.505 164.644C259.505 175.493 250.333 184.288 239.018 184.288H236.741Z" fill="url(#paint10_linear_259_38)"/>
<path d="M236.741 184.288C225.427 184.288 216.254 175.493 216.254 164.644C216.254 153.795 225.427 145 236.741 145H239.018C250.333 145 259.505 153.795 259.505 164.644C259.505 175.493 250.333 184.288 239.018 184.288H236.741Z" fill="black" fill-opacity="0.2"/>
<path d="M236.741 269.412C225.427 269.412 216.254 260.617 216.254 249.768C216.254 238.919 225.427 230.124 236.741 230.124H239.018C250.333 230.124 259.505 238.919 259.505 249.768C259.505 260.617 250.333 269.412 239.018 269.412H236.741Z" fill="url(#paint11_linear_259_38)"/>
<path d="M236.741 269.412C225.427 269.412 216.254 260.617 216.254 249.768C216.254 238.919 225.427 230.124 236.741 230.124H239.018C250.333 230.124 259.505 238.919 259.505 249.768C259.505 260.617 250.333 269.412 239.018 269.412H236.741Z" fill="black" fill-opacity="0.2"/>
<path d="M230.671 243.22V171.192H245.088V243.22H230.671Z" fill="url(#paint12_linear_259_38)"/>
<path d="M230.671 243.22V171.192H245.088V243.22H230.671Z" fill="black" fill-opacity="0.2"/>
<path d="M88.7781 385.82C88.7781 374.971 97.9505 366.176 109.265 366.176C120.58 366.176 129.753 374.971 129.753 385.82V388.003C129.753 398.852 120.58 407.647 109.265 407.647C97.9505 407.647 88.7781 398.852 88.7781 388.003V385.82Z" fill="url(#paint13_linear_259_38)"/>
<path d="M88.7781 385.82C88.7781 374.971 97.9505 366.176 109.265 366.176C120.58 366.176 129.753 374.971 129.753 385.82V388.003C129.753 398.852 120.58 407.647 109.265 407.647C97.9505 407.647 88.7781 398.852 88.7781 388.003V385.82Z" fill="black" fill-opacity="0.2"/>
<path d="M0 385.82C0 374.971 9.17245 366.176 20.4872 366.176C31.802 366.176 40.9745 374.971 40.9745 385.82V388.003C40.9745 398.852 31.802 407.647 20.4872 407.647C9.17245 407.647 0 398.852 0 388.003V385.82Z" fill="url(#paint14_linear_259_38)"/>
<path d="M0 385.82C0 374.971 9.17245 366.176 20.4872 366.176C31.802 366.176 40.9745 374.971 40.9745 385.82V388.003C40.9745 398.852 31.802 407.647 20.4872 407.647C9.17245 407.647 0 398.852 0 388.003V385.82Z" fill="black" fill-opacity="0.2"/>
<path d="M27.3163 380H102.436V393.824H27.3163V380Z" fill="url(#paint15_linear_259_38)"/>
<path d="M27.3163 380H102.436V393.824H27.3163V380Z" fill="black" fill-opacity="0.2"/>
<path d="M374.841 449.118C374.841 437.666 384.523 428.382 396.466 428.382H454.134C466.077 428.382 475.759 437.666 475.759 449.118C475.759 460.569 466.077 469.853 454.134 469.853H396.466C384.523 469.853 374.841 460.569 374.841 449.118Z" fill="url(#paint16_linear_259_38)"/>
<path d="M374.841 449.118C374.841 437.666 384.523 428.382 396.466 428.382H454.134C466.077 428.382 475.759 437.666 475.759 449.118C475.759 460.569 466.077 469.853 454.134 469.853H396.466C384.523 469.853 374.841 460.569 374.841 449.118Z" fill="black" fill-opacity="0.2"/>
<path d="M324.381 442.206H382.049V456.029H324.381V442.206Z" fill="url(#paint17_linear_259_38)"/>
<path d="M324.381 442.206H382.049V456.029H324.381V442.206Z" fill="black" fill-opacity="0.2"/>
<path d="M281.131 449.118C281.131 437.666 290.813 428.382 302.756 428.382C314.699 428.382 324.381 437.666 324.381 449.118C324.381 460.569 314.699 469.853 302.756 469.853C290.813 469.853 281.131 460.569 281.131 449.118Z" fill="url(#paint18_linear_259_38)"/>
<path d="M281.131 449.118C281.131 437.666 290.813 428.382 302.756 428.382C314.699 428.382 324.381 437.666 324.381 449.118C324.381 460.569 314.699 469.853 302.756 469.853C290.813 469.853 281.131 460.569 281.131 449.118Z" fill="black" fill-opacity="0.2"/>
<path d="M374.841 449.118C374.841 437.666 384.523 428.382 396.466 428.382H454.134C466.077 428.382 475.759 437.666 475.759 449.118C475.759 460.569 466.077 469.853 454.134 469.853H396.466C384.523 469.853 374.841 460.569 374.841 449.118Z" fill="url(#paint19_linear_259_38)"/>
<path d="M374.841 449.118C374.841 437.666 384.523 428.382 396.466 428.382H454.134C466.077 428.382 475.759 437.666 475.759 449.118C475.759 460.569 466.077 469.853 454.134 469.853H396.466C384.523 469.853 374.841 460.569 374.841 449.118Z" fill="black" fill-opacity="0.2"/>
<path d="M309.964 442.206H382.049V456.029H309.964V442.206Z" fill="url(#paint20_linear_259_38)"/>
<path d="M309.964 442.206H382.049V456.029H309.964V442.206Z" fill="black" fill-opacity="0.2"/>
<path d="M281.131 449.118C281.131 437.666 290.813 428.382 302.756 428.382C314.699 428.382 324.381 437.666 324.381 449.118C324.381 460.569 314.699 469.853 302.756 469.853C290.813 469.853 281.131 460.569 281.131 449.118Z" fill="url(#paint21_linear_259_38)"/>
<path d="M281.131 449.118C281.131 437.666 290.813 428.382 302.756 428.382C314.699 428.382 324.381 437.666 324.381 449.118C324.381 460.569 314.699 469.853 302.756 469.853C290.813 469.853 281.131 460.569 281.131 449.118Z" fill="black" fill-opacity="0.2"/>
<path d="M100.919 310.882C100.919 322.334 91.2366 331.618 79.2932 331.618H21.6254C9.68204 331.618 0 322.334 0 310.882C0 299.431 9.68203 290.147 21.6254 290.147H79.2932C91.2366 290.147 100.919 299.431 100.919 310.882Z" fill="url(#paint22_linear_259_38)"/>
<path d="M100.919 310.882C100.919 322.334 91.2366 331.618 79.2932 331.618H21.6254C9.68204 331.618 0 322.334 0 310.882C0 299.431 9.68203 290.147 21.6254 290.147H79.2932C91.2366 290.147 100.919 299.431 100.919 310.882Z" fill="black" fill-opacity="0.2"/>
<path d="M165.795 317.794H86.5017V303.971H165.795V317.794Z" fill="url(#paint23_linear_259_38)"/>
<path d="M165.795 317.794H86.5017V303.971H165.795V317.794Z" fill="black" fill-opacity="0.2"/>
<path d="M194.629 310.882C194.629 322.334 184.947 331.618 173.003 331.618C161.06 331.618 151.378 322.334 151.378 310.882C151.378 299.431 161.06 290.147 173.003 290.147C184.947 290.147 194.629 299.431 194.629 310.882Z" fill="url(#paint24_linear_259_38)"/>
<path d="M194.629 310.882C194.629 322.334 184.947 331.618 173.003 331.618C161.06 331.618 151.378 322.334 151.378 310.882C151.378 299.431 161.06 290.147 173.003 290.147C184.947 290.147 194.629 299.431 194.629 310.882Z" fill="black" fill-opacity="0.2"/>
<path d="M173.003 518.235C184.947 518.235 194.629 527.519 194.629 538.971V594.265C194.629 605.716 184.947 615 173.003 615C161.06 615 151.378 605.716 151.378 594.265V538.971C151.378 527.519 161.06 518.235 173.003 518.235Z" fill="url(#paint25_linear_259_38)"/>
<path d="M173.003 518.235C184.947 518.235 194.629 527.519 194.629 538.971V594.265C194.629 605.716 184.947 615 173.003 615C161.06 615 151.378 605.716 151.378 594.265V538.971C151.378 527.519 161.06 518.235 173.003 518.235Z" fill="black" fill-opacity="0.2"/>
<path d="M180.212 456.029V552.794H165.795V456.029H180.212Z" fill="url(#paint26_linear_259_38)"/>
<path d="M180.212 456.029V552.794H165.795V456.029H180.212Z" fill="black" fill-opacity="0.2"/>
<path d="M173.003 428.382C184.947 428.382 194.629 437.666 194.629 449.118C194.629 460.569 184.947 469.853 173.003 469.853C161.06 469.853 151.378 460.569 151.378 449.118C151.378 437.666 161.06 428.382 173.003 428.382Z" fill="url(#paint27_linear_259_38)"/>
<path d="M173.003 428.382C184.947 428.382 194.629 437.666 194.629 449.118C194.629 460.569 184.947 469.853 173.003 469.853C161.06 469.853 151.378 460.569 151.378 449.118C151.378 437.666 161.06 428.382 173.003 428.382Z" fill="black" fill-opacity="0.2"/>
<path d="M302.756 241.765C290.813 241.765 281.131 232.481 281.131 221.029V165.735C281.131 154.284 290.813 145 302.756 145C314.699 145 324.381 154.284 324.381 165.735V221.029C324.381 232.481 314.699 241.765 302.756 241.765Z" fill="url(#paint28_linear_259_38)"/>
<path d="M302.756 241.765C290.813 241.765 281.131 232.481 281.131 221.029V165.735C281.131 154.284 290.813 145 302.756 145C314.699 145 324.381 154.284 324.381 165.735V221.029C324.381 232.481 314.699 241.765 302.756 241.765Z" fill="black" fill-opacity="0.2"/>
<path d="M295.547 310.882V207.206H309.964V310.882H295.547Z" fill="url(#paint29_linear_259_38)"/>
<path d="M295.547 310.882V207.206H309.964V310.882H295.547Z" fill="black" fill-opacity="0.2"/>
<path d="M302.756 331.618C290.813 331.618 281.131 322.334 281.131 310.882C281.131 299.431 290.813 290.147 302.756 290.147C314.699 290.147 324.381 299.431 324.381 310.882C324.381 322.334 314.699 331.618 302.756 331.618Z" fill="url(#paint30_linear_259_38)"/>
<path d="M302.756 331.618C290.813 331.618 281.131 322.334 281.131 310.882C281.131 299.431 290.813 290.147 302.756 290.147C314.699 290.147 324.381 299.431 324.381 310.882C324.381 322.334 314.699 331.618 302.756 331.618Z" fill="black" fill-opacity="0.2"/>
<path d="M432.508 310.882C432.508 299.431 442.191 290.147 454.134 290.147C466.077 290.147 475.759 299.431 475.759 310.882C475.759 322.334 466.077 331.618 454.134 331.618C442.191 331.618 432.508 322.334 432.508 310.882Z" fill="url(#paint31_linear_259_38)"/>
<path d="M432.508 310.882C432.508 299.431 442.191 290.147 454.134 290.147C466.077 290.147 475.759 299.431 475.759 310.882C475.759 322.334 466.077 331.618 454.134 331.618C442.191 331.618 432.508 322.334 432.508 310.882Z" fill="black" fill-opacity="0.2"/>
<path d="M151.378 165.735C151.378 154.284 161.06 145 173.003 145C184.947 145 194.629 154.284 194.629 165.735C194.629 177.187 184.947 186.471 173.003 186.471C161.06 186.471 151.378 177.187 151.378 165.735Z" fill="url(#paint32_linear_259_38)"/>
<path d="M151.378 165.735C151.378 154.284 161.06 145 173.003 145C184.947 145 194.629 154.284 194.629 165.735C194.629 177.187 184.947 186.471 173.003 186.471C161.06 186.471 151.378 177.187 151.378 165.735Z" fill="black" fill-opacity="0.2"/>
<path d="M0 449.118C0 437.666 9.68203 428.382 21.6254 428.382C33.5688 428.382 43.2509 437.666 43.2509 449.118C43.2509 460.569 33.5688 469.853 21.6254 469.853C9.68203 469.853 0 460.569 0 449.118Z" fill="url(#paint33_linear_259_38)"/>
<path d="M0 449.118C0 437.666 9.68203 428.382 21.6254 428.382C33.5688 428.382 43.2509 437.666 43.2509 449.118C43.2509 460.569 33.5688 469.853 21.6254 469.853C9.68203 469.853 0 460.569 0 449.118Z" fill="black" fill-opacity="0.2"/>
<path d="M281.131 518.235C281.131 506.783 290.813 497.5 302.756 497.5H389.258C401.201 497.5 410.883 506.783 410.883 518.235C410.883 529.687 401.201 538.971 389.258 538.971H302.756C290.813 538.971 281.131 529.687 281.131 518.235Z" fill="url(#paint34_linear_259_38)"/>
<path d="M281.131 518.235C281.131 506.783 290.813 497.5 302.756 497.5H389.258C401.201 497.5 410.883 506.783 410.883 518.235C410.883 529.687 401.201 538.971 389.258 538.971H302.756C290.813 538.971 281.131 529.687 281.131 518.235Z" fill="black" fill-opacity="0.2"/>
<path d="M533.685 402.381V207.056H600.492C616.003 207.056 628.682 209.822 638.529 215.354C648.441 220.822 655.778 228.229 660.541 237.576C665.304 246.922 667.685 257.35 667.685 268.858C667.685 280.367 665.304 290.826 660.541 300.236C655.843 309.646 648.57 317.149 638.722 322.744C628.875 328.276 616.26 331.042 600.878 331.042H552.993V310.06H600.106C610.725 310.06 619.253 308.247 625.689 304.623C632.125 300.999 636.792 296.103 639.688 289.936C642.648 283.705 644.129 276.679 644.129 268.858C644.129 261.038 642.648 254.044 639.688 247.876C636.792 241.709 632.093 236.876 625.593 233.379C619.092 229.819 610.468 228.038 599.719 228.038H557.627V402.381H533.685Z" fill="#2C2E3C"/>
<path d="M706.254 402.381V207.056H773.061C788.508 207.056 801.187 209.663 811.098 214.877C821.01 220.027 828.347 227.116 833.11 236.145C837.873 245.174 840.254 255.442 840.254 266.951C840.254 278.459 837.873 288.664 833.11 297.566C828.347 306.467 821.042 313.461 811.195 318.548C801.348 323.571 788.765 326.082 773.447 326.082H719.383V304.719H772.675C783.23 304.719 791.726 303.193 798.162 300.141C804.662 297.089 809.361 292.765 812.257 287.17C815.217 281.511 816.698 274.771 816.698 266.951C816.698 259.13 815.217 252.295 812.257 246.445C809.296 240.596 804.566 236.082 798.065 232.902C791.565 229.66 782.972 228.038 772.288 228.038H730.196V402.381H706.254ZM799.32 314.637L847.977 402.381H820.173L772.288 314.637H799.32Z" fill="#2C2E3C"/>
<path d="M1046.97 304.719C1046.97 325.319 1043.21 343.122 1035.68 358.128C1028.15 373.133 1017.82 384.705 1004.69 392.844C991.56 400.982 976.563 405.051 959.701 405.051C942.838 405.051 927.842 400.982 914.712 392.844C901.582 384.705 891.252 373.133 883.722 358.128C876.192 343.122 872.427 325.319 872.427 304.719C872.427 284.118 876.192 266.315 883.722 251.31C891.252 236.304 901.582 224.732 914.712 216.594C927.842 208.455 942.838 204.386 959.701 204.386C976.563 204.386 991.56 208.455 1004.69 216.594C1017.82 224.732 1028.15 236.304 1035.68 251.31C1043.21 266.315 1046.97 284.118 1046.97 304.719ZM1023.8 304.719C1023.8 287.806 1020.94 273.532 1015.21 261.896C1009.55 250.26 1001.86 241.454 992.139 235.478C982.485 229.501 971.672 226.512 959.701 226.512C947.73 226.512 936.885 229.501 927.166 235.478C917.512 241.454 909.821 250.26 904.092 261.896C898.429 273.532 895.597 287.806 895.597 304.719C895.597 321.631 898.429 335.906 904.092 347.541C909.821 359.177 917.512 367.983 927.166 373.96C936.885 379.936 947.73 382.925 959.701 382.925C971.672 382.925 982.485 379.936 992.139 373.96C1001.86 367.983 1009.55 359.177 1015.21 347.541C1020.94 335.906 1023.8 321.631 1023.8 304.719Z" fill="#2C2E3C"/>
<path d="M1087.23 402.381V207.056H1154.04C1169.55 207.056 1182.23 209.822 1192.08 215.354C1201.99 220.822 1209.33 228.229 1214.09 237.576C1218.85 246.922 1221.23 257.35 1221.23 268.858C1221.23 280.367 1218.85 290.826 1214.09 300.236C1209.39 309.646 1202.12 317.149 1192.27 322.744C1182.42 328.276 1169.81 331.042 1154.43 331.042H1106.54V310.06H1153.65C1164.27 310.06 1172.8 308.247 1179.24 304.623C1185.67 300.999 1190.34 296.103 1193.24 289.936C1196.2 283.705 1197.68 276.679 1197.68 268.858C1197.68 261.038 1196.2 254.044 1193.24 247.876C1190.34 241.709 1185.64 236.876 1179.14 233.379C1172.64 229.819 1164.02 228.038 1153.27 228.038H1111.18V402.381H1087.23Z" fill="#2C2E3C"/>
<path d="M1259.8 402.381V207.056H1283.74V294.037H1389.17V207.056H1413.11V402.381H1389.17V315.019H1283.74V402.381H1259.8Z" fill="#2C2E3C"/>
<path d="M1461.04 402.381V207.056H1580.37V228.038H1484.99V294.037H1574.19V315.019H1484.99V381.399H1581.91V402.381H1461.04Z" fill="#2C2E3C"/>
<path d="M1612.71 228.038V207.056H1761V228.038H1698.83V402.381H1674.88V228.038H1612.71Z" fill="#2C2E3C"/>
<path d="M525.229 570.238H514.191L556.147 456.299H567.41L609.366 570.238H598.328L562.173 469.818H561.384L525.229 570.238ZM533.17 526.565H590.387V535.912H533.17V526.565Z" fill="#2C2E3C"/>
<path d="M763.361 456.299V570.238H753.112L684.969 474.825H684.068V570.238H673.537V456.299H683.73L752.098 551.823H752.999V456.299H763.361Z" fill="#2C2E3C"/>
<path d="M838.599 570.238H827.561L869.516 456.299H880.779L922.735 570.238H911.697L875.542 469.818H874.754L838.599 570.238ZM846.539 526.565H903.756V535.912H846.539V526.565Z" fill="#2C2E3C"/>
<path d="M986.906 570.238V456.299H997.437V560.891H1052.4V570.238H986.906Z" fill="#2C2E3C"/>
<path d="M1104.28 456.299H1116.45L1150.63 510.375H1151.64L1185.83 456.299H1197.99L1156.37 520.89V570.238H1145.9V520.89L1104.28 456.299Z" fill="#2C2E3C"/>
<path d="M1262.47 465.645V456.299H1346.1V465.645H1309.55V570.238H1299.02V465.645H1262.47Z" fill="#2C2E3C"/>
<path d="M1424.75 456.299V570.238H1414.22V456.299H1424.75Z" fill="#2C2E3C"/>
<path d="M1590.15 491.905H1579.56C1578.77 488.01 1577.34 484.413 1575.28 481.112C1573.25 477.774 1570.7 474.862 1567.62 472.377C1564.54 469.892 1561.05 467.963 1557.15 466.591C1553.24 465.219 1549.02 464.533 1544.47 464.533C1537.19 464.533 1530.55 466.406 1524.54 470.152C1518.57 473.898 1513.78 479.406 1510.18 486.675C1506.61 493.908 1504.83 502.772 1504.83 513.268C1504.83 523.839 1506.61 532.74 1510.18 539.973C1513.78 547.205 1518.57 552.695 1524.54 556.441C1530.55 560.15 1537.19 562.004 1544.47 562.004C1549.02 562.004 1553.24 561.318 1557.15 559.946C1561.05 558.573 1564.54 556.663 1567.62 554.215C1570.7 551.73 1573.25 548.819 1575.28 545.481C1577.34 542.143 1578.77 538.526 1579.56 534.632H1590.15C1589.21 539.862 1587.44 544.739 1584.85 549.264C1582.3 553.752 1579.03 557.683 1575.05 561.058C1571.11 564.434 1566.57 567.067 1561.43 568.958C1556.28 570.85 1550.63 571.796 1544.47 571.796C1534.79 571.796 1526.19 569.404 1518.68 564.619C1511.17 559.797 1505.28 553.01 1501 544.257C1496.76 535.504 1494.63 525.174 1494.63 513.268C1494.63 501.363 1496.76 491.033 1501 482.28C1505.28 473.527 1511.17 466.758 1518.68 461.973C1526.19 457.152 1534.79 454.741 1544.47 454.741C1550.63 454.741 1556.28 455.687 1561.43 457.578C1566.57 459.433 1571.11 462.066 1575.05 465.478C1579.03 468.854 1582.3 472.785 1584.85 477.273C1587.44 481.761 1589.21 486.638 1590.15 491.905Z" fill="#2C2E3C"/>
<path d="M1721.91 484.784C1721.27 478.441 1718.44 473.397 1713.41 469.651C1708.38 465.905 1702.05 464.032 1694.43 464.032C1689.06 464.032 1684.33 464.941 1680.24 466.758C1676.18 468.575 1672.99 471.097 1670.66 474.324C1668.37 477.514 1667.23 481.149 1667.23 485.229C1667.23 488.233 1667.89 490.866 1669.2 493.129C1670.51 495.391 1672.28 497.338 1674.49 498.97C1676.75 500.565 1679.22 501.938 1681.93 503.087C1684.67 504.237 1687.43 505.201 1690.21 505.98L1702.37 509.43C1706.05 510.431 1709.73 511.711 1713.41 513.268C1717.09 514.826 1720.45 516.792 1723.49 519.166C1726.57 521.502 1729.03 524.377 1730.87 527.789C1732.74 531.164 1733.68 535.225 1733.68 539.973C1733.68 546.056 1732.09 551.526 1728.89 556.385C1725.7 561.244 1721.12 565.101 1715.15 567.957C1709.18 570.776 1702.03 572.185 1693.7 572.185C1685.85 572.185 1679.04 570.906 1673.25 568.346C1667.47 565.75 1662.93 562.171 1659.63 557.609C1656.32 553.047 1654.46 547.762 1654.05 541.753H1664.86C1665.24 546.241 1666.74 550.043 1669.37 553.158C1672 556.274 1675.41 558.648 1679.62 560.28C1683.82 561.874 1688.52 562.672 1693.7 562.672C1699.44 562.672 1704.55 561.726 1709.02 559.834C1713.52 557.906 1717.05 555.235 1719.6 551.823C1722.19 548.374 1723.49 544.368 1723.49 539.806C1723.49 535.949 1722.47 532.722 1720.45 530.126C1718.42 527.492 1715.59 525.285 1711.94 523.505C1708.34 521.725 1704.15 520.149 1699.39 518.776L1685.59 514.771C1676.54 512.1 1669.52 508.41 1664.53 503.699C1659.53 498.989 1657.04 492.98 1657.04 485.674C1657.04 479.554 1658.69 474.176 1661.99 469.54C1665.33 464.866 1669.84 461.232 1675.51 458.635C1681.21 456.002 1687.62 454.685 1694.71 454.685C1701.88 454.685 1708.23 455.983 1713.75 458.58C1719.26 461.176 1723.64 464.755 1726.87 469.317C1730.13 473.842 1731.88 478.998 1732.1 484.784H1721.91Z" fill="#2C2E3C"/>
</mask>
<g mask="url(#mask0_259_38)">
<rect x="-10" y="145" width="504" height="470" fill="url(#paint35_linear_259_38)"/>
</g>
<defs>
<linearGradient id="paint0_linear_259_38" x1="186.773" y1="169.191" x2="380.829" y2="884.572" gradientUnits="userSpaceOnUse">
<stop stop-color="#A1B7E2"/>
<stop offset="1" stop-color="#16182F"/>
</linearGradient>
<linearGradient id="paint1_linear_259_38" x1="186.773" y1="169.191" x2="380.829" y2="884.572" gradientUnits="userSpaceOnUse">
<stop stop-color="#A1B7E2"/>
<stop offset="1" stop-color="#16182F"/>
</linearGradient>
<linearGradient id="paint2_linear_259_38" x1="186.773" y1="169.191" x2="380.829" y2="884.572" gradientUnits="userSpaceOnUse">
<stop stop-color="#A1B7E2"/>
<stop offset="1" stop-color="#16182F"/>
</linearGradient>
<linearGradient id="paint3_linear_259_38" x1="186.773" y1="169.191" x2="380.829" y2="884.572" gradientUnits="userSpaceOnUse">
<stop stop-color="#A1B7E2"/>
<stop offset="1" stop-color="#16182F"/>
</linearGradient>
<linearGradient id="paint4_linear_259_38" x1="186.773" y1="169.191" x2="380.829" y2="884.572" gradientUnits="userSpaceOnUse">
<stop stop-color="#A1B7E2"/>
<stop offset="1" stop-color="#16182F"/>
</linearGradient>
<linearGradient id="paint5_linear_259_38" x1="186.773" y1="169.191" x2="380.829" y2="884.572" gradientUnits="userSpaceOnUse">
<stop stop-color="#A1B7E2"/>
<stop offset="1" stop-color="#16182F"/>
</linearGradient>
<linearGradient id="paint6_linear_259_38" x1="186.773" y1="169.191" x2="380.829" y2="884.572" gradientUnits="userSpaceOnUse">
<stop stop-color="#A1B7E2"/>
<stop offset="1" stop-color="#16182F"/>
</linearGradient>
<linearGradient id="paint7_linear_259_38" x1="186.773" y1="169.191" x2="380.829" y2="884.572" gradientUnits="userSpaceOnUse">
<stop stop-color="#A1B7E2"/>
<stop offset="1" stop-color="#16182F"/>
</linearGradient>
<linearGradient id="paint8_linear_259_38" x1="186.773" y1="169.191" x2="380.829" y2="884.572" gradientUnits="userSpaceOnUse">
<stop stop-color="#A1B7E2"/>
<stop offset="1" stop-color="#16182F"/>
</linearGradient>
<linearGradient id="paint9_linear_259_38" x1="186.773" y1="169.191" x2="380.829" y2="884.572" gradientUnits="userSpaceOnUse">
<stop stop-color="#A1B7E2"/>
<stop offset="1" stop-color="#16182F"/>
</linearGradient>
<linearGradient id="paint10_linear_259_38" x1="186.773" y1="169.191" x2="380.829" y2="884.572" gradientUnits="userSpaceOnUse">
<stop stop-color="#A1B7E2"/>
<stop offset="1" stop-color="#16182F"/>
</linearGradient>
<linearGradient id="paint11_linear_259_38" x1="186.773" y1="169.191" x2="380.829" y2="884.572" gradientUnits="userSpaceOnUse">
<stop stop-color="#A1B7E2"/>
<stop offset="1" stop-color="#16182F"/>
</linearGradient>
<linearGradient id="paint12_linear_259_38" x1="186.773" y1="169.191" x2="380.829" y2="884.572" gradientUnits="userSpaceOnUse">
<stop stop-color="#A1B7E2"/>
<stop offset="1" stop-color="#16182F"/>
</linearGradient>
<linearGradient id="paint13_linear_259_38" x1="186.773" y1="169.191" x2="380.829" y2="884.572" gradientUnits="userSpaceOnUse">
<stop stop-color="#A1B7E2"/>
<stop offset="1" stop-color="#16182F"/>
</linearGradient>
<linearGradient id="paint14_linear_259_38" x1="186.773" y1="169.191" x2="380.829" y2="884.572" gradientUnits="userSpaceOnUse">
<stop stop-color="#A1B7E2"/>
<stop offset="1" stop-color="#16182F"/>
</linearGradient>
<linearGradient id="paint15_linear_259_38" x1="186.773" y1="169.191" x2="380.829" y2="884.572" gradientUnits="userSpaceOnUse">
<stop stop-color="#A1B7E2"/>
<stop offset="1" stop-color="#16182F"/>
</linearGradient>
<linearGradient id="paint16_linear_259_38" x1="186.773" y1="169.191" x2="380.829" y2="884.572" gradientUnits="userSpaceOnUse">
<stop stop-color="#A1B7E2"/>
<stop offset="1" stop-color="#16182F"/>
</linearGradient>
<linearGradient id="paint17_linear_259_38" x1="186.773" y1="169.191" x2="380.829" y2="884.572" gradientUnits="userSpaceOnUse">
<stop stop-color="#A1B7E2"/>
<stop offset="1" stop-color="#16182F"/>
</linearGradient>
<linearGradient id="paint18_linear_259_38" x1="186.773" y1="169.191" x2="380.829" y2="884.572" gradientUnits="userSpaceOnUse">
<stop stop-color="#A1B7E2"/>
<stop offset="1" stop-color="#16182F"/>
</linearGradient>
<linearGradient id="paint19_linear_259_38" x1="186.773" y1="169.191" x2="380.829" y2="884.572" gradientUnits="userSpaceOnUse">
<stop stop-color="#A1B7E2"/>
<stop offset="1" stop-color="#16182F"/>
</linearGradient>
<linearGradient id="paint20_linear_259_38" x1="186.773" y1="169.191" x2="380.829" y2="884.572" gradientUnits="userSpaceOnUse">
<stop stop-color="#A1B7E2"/>
<stop offset="1" stop-color="#16182F"/>
</linearGradient>
<linearGradient id="paint21_linear_259_38" x1="186.773" y1="169.191" x2="380.829" y2="884.572" gradientUnits="userSpaceOnUse">
<stop stop-color="#A1B7E2"/>
<stop offset="1" stop-color="#16182F"/>
</linearGradient>
<linearGradient id="paint22_linear_259_38" x1="186.773" y1="169.191" x2="380.829" y2="884.572" gradientUnits="userSpaceOnUse">
<stop stop-color="#A1B7E2"/>
<stop offset="1" stop-color="#16182F"/>
</linearGradient>
<linearGradient id="paint23_linear_259_38" x1="186.773" y1="169.191" x2="380.829" y2="884.572" gradientUnits="userSpaceOnUse">
<stop stop-color="#A1B7E2"/>
<stop offset="1" stop-color="#16182F"/>
</linearGradient>
<linearGradient id="paint24_linear_259_38" x1="186.773" y1="169.191" x2="380.829" y2="884.572" gradientUnits="userSpaceOnUse">
<stop stop-color="#A1B7E2"/>
<stop offset="1" stop-color="#16182F"/>
</linearGradient>
<linearGradient id="paint25_linear_259_38" x1="186.773" y1="169.191" x2="380.829" y2="884.572" gradientUnits="userSpaceOnUse">
<stop stop-color="#A1B7E2"/>
<stop offset="1" stop-color="#16182F"/>
</linearGradient>
<linearGradient id="paint26_linear_259_38" x1="186.773" y1="169.191" x2="380.829" y2="884.572" gradientUnits="userSpaceOnUse">
<stop stop-color="#A1B7E2"/>
<stop offset="1" stop-color="#16182F"/>
</linearGradient>
<linearGradient id="paint27_linear_259_38" x1="186.773" y1="169.191" x2="380.829" y2="884.572" gradientUnits="userSpaceOnUse">
<stop stop-color="#A1B7E2"/>
<stop offset="1" stop-color="#16182F"/>
</linearGradient>
<linearGradient id="paint28_linear_259_38" x1="186.773" y1="169.191" x2="380.829" y2="884.572" gradientUnits="userSpaceOnUse">
<stop stop-color="#A1B7E2"/>
<stop offset="1" stop-color="#16182F"/>
</linearGradient>
<linearGradient id="paint29_linear_259_38" x1="186.773" y1="169.191" x2="380.829" y2="884.572" gradientUnits="userSpaceOnUse">
<stop stop-color="#A1B7E2"/>
<stop offset="1" stop-color="#16182F"/>
</linearGradient>
<linearGradient id="paint30_linear_259_38" x1="186.773" y1="169.191" x2="380.829" y2="884.572" gradientUnits="userSpaceOnUse">
<stop stop-color="#A1B7E2"/>
<stop offset="1" stop-color="#16182F"/>
</linearGradient>
<linearGradient id="paint31_linear_259_38" x1="186.773" y1="169.191" x2="380.829" y2="884.572" gradientUnits="userSpaceOnUse">
<stop stop-color="#A1B7E2"/>
<stop offset="1" stop-color="#16182F"/>
</linearGradient>
<linearGradient id="paint32_linear_259_38" x1="186.773" y1="169.191" x2="380.829" y2="884.572" gradientUnits="userSpaceOnUse">
<stop stop-color="#A1B7E2"/>
<stop offset="1" stop-color="#16182F"/>
</linearGradient>
<linearGradient id="paint33_linear_259_38" x1="186.773" y1="169.191" x2="380.829" y2="884.572" gradientUnits="userSpaceOnUse">
<stop stop-color="#A1B7E2"/>
<stop offset="1" stop-color="#16182F"/>
</linearGradient>
<linearGradient id="paint34_linear_259_38" x1="186.773" y1="169.191" x2="380.829" y2="884.572" gradientUnits="userSpaceOnUse">
<stop stop-color="#A1B7E2"/>
<stop offset="1" stop-color="#16182F"/>
</linearGradient>
<linearGradient id="paint35_linear_259_38" x1="70" y1="170" x2="330" y2="654" gradientUnits="userSpaceOnUse">
<stop stop-color="#A1B7E2"/>
<stop offset="1" stop-color="#16182F"/>
</linearGradient>
</defs>
</svg>
