<svg width="1935" height="620" viewBox="0 0 1935 620" fill="none" xmlns="http://www.w3.org/2000/svg">
<path d="M954.28 393V134.6H1034.84C1059.67 134.6 1078.54 141.187 1091.46 154.36C1104.63 167.28 1111.22 184.633 1111.22 206.42V226.56C1111.22 248.347 1104.63 265.827 1091.46 279C1078.54 292.173 1059.67 298.76 1034.84 298.76H987.34V393H954.28ZM1034.84 165.76H987.34V267.98H1034.84C1048.52 267.98 1058.91 264.307 1066 256.96C1073.35 249.613 1077.02 239.48 1077.02 226.56V206.42C1077.02 193.753 1073.35 183.873 1066 176.78C1058.91 169.433 1048.52 165.76 1034.84 165.76ZM1352.69 393V277.86H1239.83V393H1206.77V134.6H1239.83V246.7H1352.69V134.6H1385.75V393H1352.69ZM1648.57 362.22V393H1504.17V134.6H1644.77V165.76H1537.23V246.7H1633.37V277.86H1537.23V362.22H1648.57ZM1708.7 165.76V134.6H1892.24V165.76H1817V393H1783.94V165.76H1708.7Z" fill="#464646"/>
<path d="M40.28 393V134.6H120.84C145.667 134.6 164.54 141.187 177.46 154.36C190.633 167.28 197.22 184.633 197.22 206.42V226.56C197.22 248.347 190.633 265.827 177.46 279C164.54 292.173 145.667 298.76 120.84 298.76H73.34V393H40.28ZM120.84 165.76H73.34V267.98H120.84C134.52 267.98 144.907 264.307 152 256.96C159.347 249.613 163.02 239.48 163.02 226.56V206.42C163.02 193.753 159.347 183.873 152 176.78C144.907 169.433 134.52 165.76 120.84 165.76ZM325.832 291.92V393H292.772V134.6H373.712C398.032 134.6 416.779 141.06 429.952 153.98C443.379 166.647 450.092 183.62 450.092 204.9V221.24C450.092 236.44 446.546 249.613 439.452 260.76C432.612 271.907 422.732 280.14 409.812 285.46C420.706 302.94 430.839 320.673 440.212 338.66C449.586 356.647 458.199 374.76 466.052 393H428.052C413.612 358.547 396.766 324.853 377.512 291.92H325.832ZM373.712 165H325.832V261.52H373.712C386.632 261.52 396.892 257.973 404.492 250.88C412.092 243.533 415.892 233.653 415.892 221.24V204.9C415.892 192.233 412.092 182.48 404.492 175.64C396.892 168.547 386.632 165 373.712 165Z" fill="#464646"/>
<path d="M1200.36 566L1192.24 541.5H1153.74L1145.76 566H1137.08L1168.72 470.8H1177.82L1209.6 566H1200.36ZM1162.42 515.18L1156.4 533.38H1189.44L1183.42 515.18L1172.92 482.7L1162.42 515.18ZM1242.71 566V470.8H1253.63C1259.7 479.947 1265.35 488.953 1270.57 497.82C1275.89 506.593 1280.98 515.553 1285.83 524.7C1290.69 533.847 1295.4 543.413 1299.97 553.4L1298.71 511.68V470.8H1307.81V566H1296.89C1289.89 550.973 1282.71 536.74 1275.33 523.3C1268.05 509.767 1260.03 496.187 1251.25 482.56L1251.81 525.26V566H1242.71ZM1404.32 566L1396.2 541.5H1357.7L1349.72 566H1341.04L1372.68 470.8H1381.78L1413.56 566H1404.32ZM1366.38 515.18L1360.36 533.38H1393.4L1387.38 515.18L1376.88 482.7L1366.38 515.18ZM1496.93 557.74V566H1446.67V470.8H1455.77V557.74H1496.93ZM1543.27 528.2V566H1534.17V528.2L1505.05 470.8H1514.85L1539.07 518.82L1562.87 470.8H1572.25L1543.27 528.2ZM1590.27 479.06V470.8H1656.49V479.06H1627.93V566H1618.83V479.06H1590.27ZM1697.52 566H1688.42V470.8H1697.52V566ZM1748.89 529.18C1748.89 549.153 1756.54 559.14 1771.85 559.14C1775.11 559.14 1778.33 558.767 1781.51 558.02C1784.68 557.273 1788.37 555.92 1792.57 553.96L1795.79 561.66C1791.59 563.62 1787.48 565.067 1783.47 566C1779.45 566.933 1775.53 567.4 1771.71 567.4C1761.25 567.4 1753.23 564.087 1747.63 557.46C1742.12 550.833 1739.37 541.407 1739.37 529.18V507.62C1739.37 495.393 1742.12 485.967 1747.63 479.34C1753.23 472.713 1761.25 469.4 1771.71 469.4C1775.53 469.4 1779.55 469.867 1783.75 470.8C1787.95 471.733 1791.96 473.18 1795.79 475.14L1792.71 482.84C1785.71 479.387 1778.71 477.66 1771.71 477.66C1756.49 477.66 1748.89 487.647 1748.89 507.62V529.18ZM1849.88 559.42C1856.13 559.42 1860.98 557.973 1864.44 555.08C1867.89 552.093 1869.62 547.8 1869.62 542.2C1869.62 537.533 1868.36 533.52 1865.84 530.16C1863.41 526.707 1859.44 524.233 1853.94 522.74L1842.74 519.66C1835.36 517.607 1830.04 514.433 1826.78 510.14C1823.51 505.847 1821.88 500.667 1821.88 494.6C1821.88 490.12 1822.76 485.967 1824.54 482.14C1826.31 478.313 1829.2 475.233 1833.22 472.9C1837.32 470.567 1842.88 469.4 1849.88 469.4C1853.89 469.4 1858.14 469.913 1862.62 470.94C1867.19 471.873 1871.72 473.413 1876.2 475.56L1873.12 483.4C1868.64 481.253 1864.48 479.713 1860.66 478.78C1856.83 477.847 1853.24 477.38 1849.88 477.38C1843.9 477.38 1839.28 478.687 1836.02 481.3C1832.75 483.913 1831.12 488.113 1831.12 493.9C1831.12 497.913 1832.19 501.413 1834.34 504.4C1836.48 507.293 1840.4 509.533 1846.1 511.12L1857.3 514.2C1864.48 516.16 1869.85 519.427 1873.4 524C1877.04 528.573 1878.86 534.267 1878.86 541.08C1878.86 548.827 1876.57 555.173 1872 560.12C1867.52 564.973 1860.14 567.4 1849.88 567.4C1845.49 567.4 1840.82 566.887 1835.88 565.86C1830.93 564.833 1825.98 563.2 1821.04 560.96L1823.98 553.26C1828.74 555.5 1833.17 557.087 1837.28 558.02C1841.38 558.953 1845.58 559.42 1849.88 559.42Z" fill="#464646"/>
<mask id="mask0_259_37" style="mask-type:alpha" maskUnits="userSpaceOnUse" x="552" y="98" width="1104" height="295">
<path d="M592.672 154.33C592.672 147.151 598.742 141.331 606.229 141.331H660.459C667.946 141.331 674.016 147.151 674.016 154.33C674.016 161.51 667.946 167.33 660.459 167.33H606.229C598.742 167.33 592.672 161.51 592.672 154.33Z" fill="url(#paint0_linear_259_37)"/>
<path d="M592.672 154.33C592.672 147.151 598.742 141.331 606.229 141.331H660.459C667.946 141.331 674.016 147.151 674.016 154.33C674.016 161.51 667.946 167.33 660.459 167.33H606.229C598.742 167.33 592.672 161.51 592.672 154.33Z" fill="black" fill-opacity="0.2"/>
<path d="M782.475 214.994C774.987 214.994 768.917 209.174 768.917 201.994V149.997C768.917 142.818 774.987 136.998 782.475 136.998C789.962 136.998 796.032 142.818 796.032 149.997V201.994C796.032 209.174 789.962 214.994 782.475 214.994Z" fill="url(#paint1_linear_259_37)"/>
<path d="M782.475 214.994C774.987 214.994 768.917 209.174 768.917 201.994V149.997C768.917 142.818 774.987 136.998 782.475 136.998C789.962 136.998 796.032 142.818 796.032 149.997V201.994C796.032 209.174 789.962 214.994 782.475 214.994Z" fill="black" fill-opacity="0.2"/>
<path d="M619.787 353.653C612.299 353.653 606.229 347.833 606.229 340.654V288.656C606.229 281.477 612.299 275.657 619.787 275.657C627.274 275.657 633.344 281.477 633.344 288.656V340.654C633.344 347.833 627.274 353.653 619.787 353.653Z" fill="url(#paint2_linear_259_37)"/>
<path d="M619.787 353.653C612.299 353.653 606.229 347.833 606.229 340.654V288.656C606.229 281.477 612.299 275.657 619.787 275.657C627.274 275.657 633.344 281.477 633.344 288.656V340.654C633.344 347.833 627.274 353.653 619.787 353.653Z" fill="black" fill-opacity="0.2"/>
<path d="M728.245 379.651C728.245 372.472 734.315 366.652 741.803 366.652C749.29 366.652 755.36 372.472 755.36 379.651C755.36 386.831 749.29 392.651 741.803 392.651C734.315 392.651 728.245 386.831 728.245 379.651Z" fill="url(#paint3_linear_259_37)"/>
<path d="M728.245 379.651C728.245 372.472 734.315 366.652 741.803 366.652C749.29 366.652 755.36 372.472 755.36 379.651C755.36 386.831 749.29 392.651 741.803 392.651C734.315 392.651 728.245 386.831 728.245 379.651Z" fill="black" fill-opacity="0.2"/>
<path d="M824.574 248.974C824.574 242.173 830.324 236.659 837.418 236.659C844.511 236.659 850.261 242.173 850.261 248.974V250.343C850.261 257.144 844.511 262.658 837.418 262.658C830.324 262.658 824.574 257.144 824.574 250.343V248.974Z" fill="url(#paint4_linear_259_37)"/>
<path d="M824.574 248.974C824.574 242.173 830.324 236.659 837.418 236.659C844.511 236.659 850.261 242.173 850.261 248.974V250.343C850.261 257.144 844.511 262.658 837.418 262.658C830.324 262.658 824.574 257.144 824.574 250.343V248.974Z" fill="black" fill-opacity="0.2"/>
<path d="M768.917 248.974C768.917 242.173 774.668 236.659 781.761 236.659C788.855 236.659 794.605 242.173 794.605 248.974V250.343C794.605 257.144 788.855 262.658 781.761 262.658C774.668 262.658 768.917 257.144 768.917 250.343V248.974Z" fill="url(#paint5_linear_259_37)"/>
<path d="M768.917 248.974C768.917 242.173 774.668 236.659 781.761 236.659C788.855 236.659 794.605 242.173 794.605 248.974V250.343C794.605 257.144 788.855 262.658 781.761 262.658C774.668 262.658 768.917 257.144 768.917 250.343V248.974Z" fill="black" fill-opacity="0.2"/>
<path d="M786.042 245.325H833.136V253.992H786.042V245.325Z" fill="url(#paint6_linear_259_37)"/>
<path d="M786.042 245.325H833.136V253.992H786.042V245.325Z" fill="black" fill-opacity="0.2"/>
<path d="M700.417 339.285C693.324 339.285 687.573 333.772 687.573 326.97C687.573 320.169 693.324 314.655 700.417 314.655H701.844C708.938 314.655 714.688 320.169 714.688 326.97C714.688 333.772 708.938 339.285 701.844 339.285H700.417Z" fill="url(#paint7_linear_259_37)"/>
<path d="M700.417 339.285C693.324 339.285 687.573 333.772 687.573 326.97C687.573 320.169 693.324 314.655 700.417 314.655H701.844C708.938 314.655 714.688 320.169 714.688 326.97C714.688 333.772 708.938 339.285 701.844 339.285H700.417Z" fill="black" fill-opacity="0.2"/>
<path d="M700.417 392.651C693.324 392.651 687.573 387.137 687.573 380.336C687.573 373.534 693.324 368.021 700.417 368.021H701.844C708.938 368.021 714.688 373.534 714.688 380.336C714.688 387.137 708.938 392.651 701.844 392.651H700.417Z" fill="url(#paint8_linear_259_37)"/>
<path d="M700.417 392.651C693.324 392.651 687.573 387.137 687.573 380.336C687.573 373.534 693.324 368.021 700.417 368.021H701.844C708.938 368.021 714.688 373.534 714.688 380.336C714.688 387.137 708.938 392.651 701.844 392.651H700.417Z" fill="black" fill-opacity="0.2"/>
<path d="M696.612 376.231V331.075H705.65V376.231H696.612Z" fill="url(#paint9_linear_259_37)"/>
<path d="M696.612 376.231V331.075H705.65V376.231H696.612Z" fill="black" fill-opacity="0.2"/>
<path d="M700.417 122.63C693.324 122.63 687.573 117.117 687.573 110.315C687.573 103.514 693.324 98 700.417 98H701.844C708.938 98 714.688 103.514 714.688 110.315C714.688 117.117 708.938 122.63 701.844 122.63H700.417Z" fill="url(#paint10_linear_259_37)"/>
<path d="M700.417 122.63C693.324 122.63 687.573 117.117 687.573 110.315C687.573 103.514 693.324 98 700.417 98H701.844C708.938 98 714.688 103.514 714.688 110.315C714.688 117.117 708.938 122.63 701.844 122.63H700.417Z" fill="black" fill-opacity="0.2"/>
<path d="M700.417 175.996C693.324 175.996 687.573 170.482 687.573 163.681C687.573 156.879 693.324 151.366 700.417 151.366H701.844C708.938 151.366 714.688 156.879 714.688 163.681C714.688 170.482 708.938 175.996 701.844 175.996H700.417Z" fill="url(#paint11_linear_259_37)"/>
<path d="M700.417 175.996C693.324 175.996 687.573 170.482 687.573 163.681C687.573 156.879 693.324 151.366 700.417 151.366H701.844C708.938 151.366 714.688 156.879 714.688 163.681C714.688 170.482 708.938 175.996 701.844 175.996H700.417Z" fill="black" fill-opacity="0.2"/>
<path d="M696.612 159.576V114.42H705.65V159.576H696.612Z" fill="url(#paint12_linear_259_37)"/>
<path d="M696.612 159.576V114.42H705.65V159.576H696.612Z" fill="black" fill-opacity="0.2"/>
<path d="M607.656 248.974C607.656 242.173 613.407 236.659 620.5 236.659C627.594 236.659 633.344 242.173 633.344 248.974V250.343C633.344 257.144 627.594 262.658 620.5 262.658C613.407 262.658 607.656 257.144 607.656 250.343V248.974Z" fill="url(#paint13_linear_259_37)"/>
<path d="M607.656 248.974C607.656 242.173 613.407 236.659 620.5 236.659C627.594 236.659 633.344 242.173 633.344 248.974V250.343C633.344 257.144 627.594 262.658 620.5 262.658C613.407 262.658 607.656 257.144 607.656 250.343V248.974Z" fill="black" fill-opacity="0.2"/>
<path d="M552 248.974C552 242.173 557.75 236.659 564.844 236.659C571.937 236.659 577.688 242.173 577.688 248.974V250.343C577.688 257.144 571.937 262.658 564.844 262.658C557.75 262.658 552 257.144 552 250.343V248.974Z" fill="url(#paint14_linear_259_37)"/>
<path d="M552 248.974C552 242.173 557.75 236.659 564.844 236.659C571.937 236.659 577.688 242.173 577.688 248.974V250.343C577.688 257.144 571.937 262.658 564.844 262.658C557.75 262.658 552 257.144 552 250.343V248.974Z" fill="black" fill-opacity="0.2"/>
<path d="M569.125 245.325H616.219V253.992H569.125V245.325Z" fill="url(#paint15_linear_259_37)"/>
<path d="M569.125 245.325H616.219V253.992H569.125V245.325Z" fill="black" fill-opacity="0.2"/>
<path d="M786.994 288.656C786.994 281.477 793.064 275.657 800.551 275.657H836.704C844.192 275.657 850.261 281.477 850.261 288.656C850.261 295.836 844.192 301.656 836.704 301.656H800.551C793.064 301.656 786.994 295.836 786.994 288.656Z" fill="url(#paint16_linear_259_37)"/>
<path d="M786.994 288.656C786.994 281.477 793.064 275.657 800.551 275.657H836.704C844.192 275.657 850.261 281.477 850.261 288.656C850.261 295.836 844.192 301.656 836.704 301.656H800.551C793.064 301.656 786.994 295.836 786.994 288.656Z" fill="black" fill-opacity="0.2"/>
<path d="M755.36 284.323H791.513V292.989H755.36V284.323Z" fill="url(#paint17_linear_259_37)"/>
<path d="M755.36 284.323H791.513V292.989H755.36V284.323Z" fill="black" fill-opacity="0.2"/>
<path d="M728.245 288.656C728.245 281.477 734.315 275.657 741.803 275.657C749.29 275.657 755.36 281.477 755.36 288.656C755.36 295.836 749.29 301.656 741.803 301.656C734.315 301.656 728.245 295.836 728.245 288.656Z" fill="url(#paint18_linear_259_37)"/>
<path d="M728.245 288.656C728.245 281.477 734.315 275.657 741.803 275.657C749.29 275.657 755.36 281.477 755.36 288.656C755.36 295.836 749.29 301.656 741.803 301.656C734.315 301.656 728.245 295.836 728.245 288.656Z" fill="black" fill-opacity="0.2"/>
<path d="M786.994 288.656C786.994 281.477 793.064 275.657 800.551 275.657H836.704C844.192 275.657 850.261 281.477 850.261 288.656C850.261 295.836 844.192 301.656 836.704 301.656H800.551C793.064 301.656 786.994 295.836 786.994 288.656Z" fill="url(#paint19_linear_259_37)"/>
<path d="M786.994 288.656C786.994 281.477 793.064 275.657 800.551 275.657H836.704C844.192 275.657 850.261 281.477 850.261 288.656C850.261 295.836 844.192 301.656 836.704 301.656H800.551C793.064 301.656 786.994 295.836 786.994 288.656Z" fill="black" fill-opacity="0.2"/>
<path d="M746.322 284.323H791.513V292.989H746.322V284.323Z" fill="url(#paint20_linear_259_37)"/>
<path d="M746.322 284.323H791.513V292.989H746.322V284.323Z" fill="black" fill-opacity="0.2"/>
<path d="M728.245 288.656C728.245 281.477 734.315 275.657 741.803 275.657C749.29 275.657 755.36 281.477 755.36 288.656C755.36 295.836 749.29 301.656 741.803 301.656C734.315 301.656 728.245 295.836 728.245 288.656Z" fill="url(#paint21_linear_259_37)"/>
<path d="M728.245 288.656C728.245 281.477 734.315 275.657 741.803 275.657C749.29 275.657 755.36 281.477 755.36 288.656C755.36 295.836 749.29 301.656 741.803 301.656C734.315 301.656 728.245 295.836 728.245 288.656Z" fill="black" fill-opacity="0.2"/>
<path d="M615.268 201.994C615.268 209.174 609.198 214.994 601.71 214.994H565.557C558.07 214.994 552 209.174 552 201.994C552 194.815 558.07 188.995 565.557 188.995H601.71C609.198 188.995 615.268 194.815 615.268 201.994Z" fill="url(#paint22_linear_259_37)"/>
<path d="M615.268 201.994C615.268 209.174 609.198 214.994 601.71 214.994H565.557C558.07 214.994 552 209.174 552 201.994C552 194.815 558.07 188.995 565.557 188.995H601.71C609.198 188.995 615.268 194.815 615.268 201.994Z" fill="black" fill-opacity="0.2"/>
<path d="M655.94 206.327H606.229V197.661H655.94V206.327Z" fill="url(#paint23_linear_259_37)"/>
<path d="M655.94 206.327H606.229V197.661H655.94V206.327Z" fill="black" fill-opacity="0.2"/>
<path d="M674.016 201.994C674.016 209.174 667.946 214.994 660.459 214.994C652.971 214.994 646.901 209.174 646.901 201.994C646.901 194.815 652.971 188.995 660.459 188.995C667.946 188.995 674.016 194.815 674.016 201.994Z" fill="url(#paint24_linear_259_37)"/>
<path d="M674.016 201.994C674.016 209.174 667.946 214.994 660.459 214.994C652.971 214.994 646.901 209.174 646.901 201.994C646.901 194.815 652.971 188.995 660.459 188.995C667.946 188.995 674.016 194.815 674.016 201.994Z" fill="black" fill-opacity="0.2"/>
<path d="M660.459 331.987C667.946 331.987 674.016 337.807 674.016 344.987V379.651C674.016 386.831 667.946 392.651 660.459 392.651C652.971 392.651 646.901 386.831 646.901 379.651V344.987C646.901 337.807 652.971 331.987 660.459 331.987Z" fill="url(#paint25_linear_259_37)"/>
<path d="M660.459 331.987C667.946 331.987 674.016 337.807 674.016 344.987V379.651C674.016 386.831 667.946 392.651 660.459 392.651C652.971 392.651 646.901 386.831 646.901 379.651V344.987C646.901 337.807 652.971 331.987 660.459 331.987Z" fill="black" fill-opacity="0.2"/>
<path d="M664.978 292.989V353.653H655.94V292.989H664.978Z" fill="url(#paint26_linear_259_37)"/>
<path d="M664.978 292.989V353.653H655.94V292.989H664.978Z" fill="black" fill-opacity="0.2"/>
<path d="M660.459 275.657C667.946 275.657 674.016 281.477 674.016 288.656C674.016 295.836 667.946 301.656 660.459 301.656C652.971 301.656 646.901 295.836 646.901 288.656C646.901 281.477 652.971 275.657 660.459 275.657Z" fill="url(#paint27_linear_259_37)"/>
<path d="M660.459 275.657C667.946 275.657 674.016 281.477 674.016 288.656C674.016 295.836 667.946 301.656 660.459 301.656C652.971 301.656 646.901 295.836 646.901 288.656C646.901 281.477 652.971 275.657 660.459 275.657Z" fill="black" fill-opacity="0.2"/>
<path d="M741.803 158.663C734.315 158.663 728.245 152.843 728.245 145.664V110.999C728.245 103.82 734.315 98 741.803 98C749.29 98 755.36 103.82 755.36 110.999V145.664C755.36 152.843 749.29 158.663 741.803 158.663Z" fill="url(#paint28_linear_259_37)"/>
<path d="M741.803 158.663C734.315 158.663 728.245 152.843 728.245 145.664V110.999C728.245 103.82 734.315 98 741.803 98C749.29 98 755.36 103.82 755.36 110.999V145.664C755.36 152.843 749.29 158.663 741.803 158.663Z" fill="black" fill-opacity="0.2"/>
<path d="M737.284 201.994V136.998H746.322V201.994H737.284Z" fill="url(#paint29_linear_259_37)"/>
<path d="M737.284 201.994V136.998H746.322V201.994H737.284Z" fill="black" fill-opacity="0.2"/>
<path d="M741.803 214.994C734.315 214.994 728.245 209.174 728.245 201.994C728.245 194.815 734.315 188.995 741.803 188.995C749.29 188.995 755.36 194.815 755.36 201.994C755.36 209.174 749.29 214.994 741.803 214.994Z" fill="url(#paint30_linear_259_37)"/>
<path d="M741.803 214.994C734.315 214.994 728.245 209.174 728.245 201.994C728.245 194.815 734.315 188.995 741.803 188.995C749.29 188.995 755.36 194.815 755.36 201.994C755.36 209.174 749.29 214.994 741.803 214.994Z" fill="black" fill-opacity="0.2"/>
<path d="M823.147 201.994C823.147 194.815 829.217 188.995 836.704 188.995C844.192 188.995 850.261 194.815 850.261 201.994C850.261 209.174 844.192 214.994 836.704 214.994C829.217 214.994 823.147 209.174 823.147 201.994Z" fill="url(#paint31_linear_259_37)"/>
<path d="M823.147 201.994C823.147 194.815 829.217 188.995 836.704 188.995C844.192 188.995 850.261 194.815 850.261 201.994C850.261 209.174 844.192 214.994 836.704 214.994C829.217 214.994 823.147 209.174 823.147 201.994Z" fill="black" fill-opacity="0.2"/>
<path d="M646.901 110.999C646.901 103.82 652.971 98 660.459 98C667.946 98 674.016 103.82 674.016 110.999C674.016 118.179 667.946 123.999 660.459 123.999C652.971 123.999 646.901 118.179 646.901 110.999Z" fill="url(#paint32_linear_259_37)"/>
<path d="M646.901 110.999C646.901 103.82 652.971 98 660.459 98C667.946 98 674.016 103.82 674.016 110.999C674.016 118.179 667.946 123.999 660.459 123.999C652.971 123.999 646.901 118.179 646.901 110.999Z" fill="black" fill-opacity="0.2"/>
<path d="M552 288.656C552 281.477 558.07 275.657 565.557 275.657C573.045 275.657 579.115 281.477 579.115 288.656C579.115 295.836 573.045 301.656 565.557 301.656C558.07 301.656 552 295.836 552 288.656Z" fill="url(#paint33_linear_259_37)"/>
<path d="M552 288.656C552 281.477 558.07 275.657 565.557 275.657C573.045 275.657 579.115 281.477 579.115 288.656C579.115 295.836 573.045 301.656 565.557 301.656C558.07 301.656 552 295.836 552 288.656Z" fill="black" fill-opacity="0.2"/>
<path d="M728.245 331.987C728.245 324.808 734.315 318.988 741.803 318.988H796.032C803.52 318.988 809.589 324.808 809.589 331.987C809.589 339.167 803.52 344.987 796.032 344.987H741.803C734.315 344.987 728.245 339.167 728.245 331.987Z" fill="url(#paint34_linear_259_37)"/>
<path d="M728.245 331.987C728.245 324.808 734.315 318.988 741.803 318.988H796.032C803.52 318.988 809.589 324.808 809.589 331.987C809.589 339.167 803.52 344.987 796.032 344.987H741.803C734.315 344.987 728.245 339.167 728.245 331.987Z" fill="black" fill-opacity="0.2"/>
<path d="M886.576 259.356V136.904H928.458C938.182 136.904 946.131 138.638 952.305 142.106C958.518 145.534 963.118 150.178 966.104 156.037C969.09 161.897 970.583 168.434 970.583 175.649C970.583 182.864 969.09 189.421 966.104 195.32C963.159 201.219 958.599 205.923 952.426 209.431C946.252 212.899 938.344 214.633 928.7 214.633H898.68V201.479H928.216C934.874 201.479 940.22 200.343 944.255 198.07C948.29 195.798 951.215 192.729 953.031 188.863C954.887 184.956 955.815 180.552 955.815 175.649C955.815 170.746 954.887 166.361 953.031 162.495C951.215 158.628 948.27 155.599 944.194 153.406C940.119 151.174 934.712 150.058 927.974 150.058H901.586V259.356H886.576Z" fill="#2C2E3C"/>
<path d="M994.762 259.356V136.904H1036.64C1046.33 136.904 1054.28 138.538 1060.49 141.807C1066.7 145.036 1071.3 149.48 1074.29 155.14C1077.28 160.801 1078.77 167.238 1078.77 174.453C1078.77 181.668 1077.28 188.065 1074.29 193.646C1071.3 199.226 1066.72 203.611 1060.55 206.8C1054.38 209.949 1046.49 211.523 1036.89 211.523H1002.99V198.13H1036.4C1043.02 198.13 1048.35 197.174 1052.38 195.26C1056.46 193.347 1059.4 190.636 1061.22 187.129C1063.07 183.581 1064 179.356 1064 174.453C1064 169.55 1063.07 165.265 1061.22 161.598C1059.36 157.931 1056.4 155.101 1052.32 153.108C1048.24 151.075 1042.86 150.058 1036.16 150.058H1009.77V259.356H994.762ZM1053.11 204.349L1083.61 259.356H1066.18L1036.16 204.349H1053.11Z" fill="#2C2E3C"/>
<path d="M1208.37 198.13C1208.37 211.045 1206.01 222.206 1201.28 231.613C1196.56 241.02 1190.09 248.275 1181.86 253.377C1173.63 258.479 1164.22 261.031 1153.65 261.031C1143.08 261.031 1133.68 258.479 1125.45 253.377C1117.22 248.275 1110.74 241.02 1106.02 231.613C1101.3 222.206 1098.94 211.045 1098.94 198.13C1098.94 185.215 1101.3 174.054 1106.02 164.647C1110.74 155.24 1117.22 147.985 1125.45 142.883C1133.68 137.781 1143.08 135.23 1153.65 135.23C1164.22 135.23 1173.63 137.781 1181.86 142.883C1190.09 147.985 1196.56 155.24 1201.28 164.647C1206.01 174.054 1208.37 185.215 1208.37 198.13ZM1193.84 198.13C1193.84 187.527 1192.04 178.579 1188.45 171.284C1184.9 163.989 1180.08 158.469 1173.99 154.722C1167.94 150.975 1161.16 149.101 1153.65 149.101C1146.15 149.101 1139.35 150.975 1133.26 154.722C1127.2 158.469 1122.38 163.989 1118.79 171.284C1115.24 178.579 1113.46 187.527 1113.46 198.13C1113.46 208.733 1115.24 217.682 1118.79 224.976C1122.38 232.271 1127.2 237.792 1133.26 241.539C1139.35 245.286 1146.15 247.159 1153.65 247.159C1161.16 247.159 1167.94 245.286 1173.99 241.539C1180.08 237.792 1184.9 232.271 1188.45 224.976C1192.04 217.682 1193.84 208.733 1193.84 198.13Z" fill="#2C2E3C"/>
<path d="M1233.6 259.356V136.904H1275.49C1285.21 136.904 1293.16 138.638 1299.33 142.106C1305.55 145.534 1310.15 150.178 1313.13 156.037C1316.12 161.897 1317.61 168.434 1317.61 175.649C1317.61 182.864 1316.12 189.421 1313.13 195.32C1310.19 201.219 1305.63 205.923 1299.45 209.431C1293.28 212.899 1285.37 214.633 1275.73 214.633H1245.71V201.479H1275.24C1281.9 201.479 1287.25 200.343 1291.28 198.07C1295.32 195.798 1298.24 192.729 1300.06 188.863C1301.92 184.956 1302.84 180.552 1302.84 175.649C1302.84 170.746 1301.92 166.361 1300.06 162.495C1298.24 158.628 1295.3 155.599 1291.22 153.406C1287.15 151.174 1281.74 150.058 1275 150.058H1248.61V259.356H1233.6Z" fill="#2C2E3C"/>
<path d="M1341.79 259.356V136.904H1356.8V191.434H1422.89V136.904H1437.9V259.356H1422.89V204.588H1356.8V259.356H1341.79Z" fill="#2C2E3C"/>
<path d="M1467.95 259.356V136.904H1542.76V150.058H1482.96V191.434H1538.89V204.588H1482.96V246.202H1543.73V259.356H1467.95Z" fill="#2C2E3C"/>
<path d="M1563.04 150.058V136.904H1656V150.058H1617.02V259.356H1602.01V150.058H1563.04Z" fill="#2C2E3C"/>
<path d="M881.275 364.589H874.355L900.658 293.158H907.719L934.021 364.589H927.101L904.435 301.634H903.941L881.275 364.589ZM886.253 337.209H922.123V343.069H886.253V337.209Z" fill="#2C2E3C"/>
<path d="M1030.56 293.158V364.589H1024.14L981.418 304.773H980.853V364.589H974.251V293.158H980.642L1023.5 353.044H1024.07V293.158H1030.56Z" fill="#2C2E3C"/>
<path d="M1077.73 364.589H1070.81L1097.11 293.158H1104.18L1130.48 364.589H1123.56L1100.89 301.634H1100.4L1077.73 364.589ZM1082.71 337.209H1118.58V343.069H1082.71V337.209Z" fill="#2C2E3C"/>
<path d="M1170.71 364.589V293.158H1177.31V358.729H1211.77V364.589H1170.71Z" fill="#2C2E3C"/>
<path d="M1244.29 293.158H1251.92L1273.35 327.06H1273.98L1295.42 293.158H1303.04L1276.95 333.652V364.589H1270.38V333.652L1244.29 293.158Z" fill="#2C2E3C"/>
<path d="M1343.47 299.018V293.158H1395.89V299.018H1372.98V364.589H1366.38V299.018H1343.47Z" fill="#2C2E3C"/>
<path d="M1445.2 293.158V364.589H1438.6V293.158H1445.2Z" fill="#2C2E3C"/>
<path d="M1548.89 315.48H1542.25C1541.76 313.039 1540.86 310.783 1539.57 308.714C1538.3 306.621 1536.7 304.796 1534.77 303.238C1532.84 301.68 1530.65 300.471 1528.2 299.611C1525.75 298.75 1523.1 298.32 1520.26 298.32C1515.69 298.32 1511.52 299.495 1507.76 301.843C1504.02 304.191 1501.02 307.644 1498.76 312.202C1496.52 316.736 1495.4 322.293 1495.4 328.874C1495.4 335.5 1496.52 341.081 1498.76 345.615C1501.02 350.149 1504.02 353.591 1507.76 355.939C1511.52 358.264 1515.69 359.427 1520.26 359.427C1523.1 359.427 1525.75 358.997 1528.2 358.136C1530.65 357.276 1532.84 356.079 1534.77 354.544C1536.7 352.986 1538.3 351.161 1539.57 349.068C1540.86 346.975 1541.76 344.708 1542.25 342.267H1548.89C1548.3 345.545 1547.19 348.603 1545.57 351.44C1543.97 354.253 1541.92 356.718 1539.43 358.834C1536.96 360.95 1534.11 362.601 1530.88 363.787C1527.66 364.972 1524.12 365.565 1520.26 365.565C1514.18 365.565 1508.79 364.066 1504.09 361.066C1499.38 358.043 1495.68 353.788 1493 348.301C1490.34 342.813 1489.01 336.337 1489.01 328.874C1489.01 321.41 1490.34 314.934 1493 309.446C1495.68 303.959 1499.38 299.715 1504.09 296.716C1508.79 293.693 1514.18 292.182 1520.26 292.182C1524.12 292.182 1527.66 292.775 1530.88 293.961C1534.11 295.123 1536.96 296.774 1539.43 298.913C1541.92 301.029 1543.97 303.494 1545.57 306.307C1547.19 309.121 1548.3 312.179 1548.89 315.48Z" fill="#2C2E3C"/>
<path d="M1631.49 311.016C1631.09 307.04 1629.32 303.878 1626.16 301.529C1623.01 299.181 1619.04 298.006 1614.27 298.006C1610.9 298.006 1607.93 298.576 1605.37 299.715C1602.83 300.855 1600.83 302.436 1599.37 304.459C1597.93 306.458 1597.21 308.737 1597.21 311.295C1597.21 313.178 1597.63 314.829 1598.45 316.248C1599.27 317.666 1600.38 318.887 1601.77 319.91C1603.18 320.91 1604.73 321.77 1606.43 322.491C1608.15 323.212 1609.88 323.816 1611.62 324.305L1619.24 326.467C1621.55 327.095 1623.86 327.897 1626.16 328.874C1628.47 329.85 1630.58 331.083 1632.48 332.571C1634.41 334.036 1635.96 335.838 1637.11 337.977C1638.29 340.093 1638.87 342.639 1638.87 345.615C1638.87 349.428 1637.87 352.858 1635.87 355.904C1633.87 358.95 1631 361.368 1627.26 363.159C1623.52 364.926 1619.03 365.81 1613.81 365.81C1608.89 365.81 1604.62 365.007 1600.99 363.403C1597.37 361.775 1594.52 359.531 1592.45 356.671C1590.38 353.811 1589.21 350.498 1588.95 346.731H1595.73C1595.97 349.545 1596.91 351.928 1598.55 353.881C1600.2 355.834 1602.34 357.323 1604.98 358.346C1607.62 359.345 1610.56 359.845 1613.81 359.845C1617.41 359.845 1620.61 359.252 1623.41 358.067C1626.23 356.857 1628.45 355.183 1630.05 353.044C1631.67 350.882 1632.48 348.37 1632.48 345.51C1632.48 343.092 1631.85 341.069 1630.58 339.442C1629.31 337.791 1627.53 336.407 1625.25 335.291C1622.99 334.175 1620.36 333.187 1617.37 332.326L1608.72 329.815C1603.05 328.141 1598.65 325.828 1595.52 322.875C1592.39 319.922 1590.82 316.155 1590.82 311.574C1590.82 307.737 1591.86 304.366 1593.93 301.459C1596.02 298.53 1598.85 296.251 1602.4 294.623C1605.98 292.972 1609.99 292.147 1614.44 292.147C1618.94 292.147 1622.92 292.961 1626.38 294.588C1629.84 296.216 1632.58 298.46 1634.6 301.32C1636.65 304.157 1637.74 307.389 1637.89 311.016H1631.49Z" fill="#2C2E3C"/>
</mask>
<g mask="url(#mask0_259_37)">
<rect x="545.731" y="98" width="315.966" height="294.651" fill="url(#paint35_linear_259_37)"/>
</g>
<defs>
<linearGradient id="paint0_linear_259_37" x1="669.091" y1="113.166" x2="790.748" y2="561.65" gradientUnits="userSpaceOnUse">
<stop stop-color="#A1B7E2"/>
<stop offset="1" stop-color="#16182F"/>
</linearGradient>
<linearGradient id="paint1_linear_259_37" x1="669.091" y1="113.166" x2="790.748" y2="561.65" gradientUnits="userSpaceOnUse">
<stop stop-color="#A1B7E2"/>
<stop offset="1" stop-color="#16182F"/>
</linearGradient>
<linearGradient id="paint2_linear_259_37" x1="669.091" y1="113.166" x2="790.748" y2="561.65" gradientUnits="userSpaceOnUse">
<stop stop-color="#A1B7E2"/>
<stop offset="1" stop-color="#16182F"/>
</linearGradient>
<linearGradient id="paint3_linear_259_37" x1="669.091" y1="113.166" x2="790.748" y2="561.65" gradientUnits="userSpaceOnUse">
<stop stop-color="#A1B7E2"/>
<stop offset="1" stop-color="#16182F"/>
</linearGradient>
<linearGradient id="paint4_linear_259_37" x1="669.091" y1="113.166" x2="790.748" y2="561.65" gradientUnits="userSpaceOnUse">
<stop stop-color="#A1B7E2"/>
<stop offset="1" stop-color="#16182F"/>
</linearGradient>
<linearGradient id="paint5_linear_259_37" x1="669.091" y1="113.166" x2="790.748" y2="561.65" gradientUnits="userSpaceOnUse">
<stop stop-color="#A1B7E2"/>
<stop offset="1" stop-color="#16182F"/>
</linearGradient>
<linearGradient id="paint6_linear_259_37" x1="669.091" y1="113.166" x2="790.748" y2="561.65" gradientUnits="userSpaceOnUse">
<stop stop-color="#A1B7E2"/>
<stop offset="1" stop-color="#16182F"/>
</linearGradient>
<linearGradient id="paint7_linear_259_37" x1="669.091" y1="113.166" x2="790.748" y2="561.65" gradientUnits="userSpaceOnUse">
<stop stop-color="#A1B7E2"/>
<stop offset="1" stop-color="#16182F"/>
</linearGradient>
<linearGradient id="paint8_linear_259_37" x1="669.091" y1="113.166" x2="790.748" y2="561.65" gradientUnits="userSpaceOnUse">
<stop stop-color="#A1B7E2"/>
<stop offset="1" stop-color="#16182F"/>
</linearGradient>
<linearGradient id="paint9_linear_259_37" x1="669.091" y1="113.166" x2="790.748" y2="561.65" gradientUnits="userSpaceOnUse">
<stop stop-color="#A1B7E2"/>
<stop offset="1" stop-color="#16182F"/>
</linearGradient>
<linearGradient id="paint10_linear_259_37" x1="669.091" y1="113.166" x2="790.748" y2="561.65" gradientUnits="userSpaceOnUse">
<stop stop-color="#A1B7E2"/>
<stop offset="1" stop-color="#16182F"/>
</linearGradient>
<linearGradient id="paint11_linear_259_37" x1="669.091" y1="113.166" x2="790.748" y2="561.65" gradientUnits="userSpaceOnUse">
<stop stop-color="#A1B7E2"/>
<stop offset="1" stop-color="#16182F"/>
</linearGradient>
<linearGradient id="paint12_linear_259_37" x1="669.091" y1="113.166" x2="790.748" y2="561.65" gradientUnits="userSpaceOnUse">
<stop stop-color="#A1B7E2"/>
<stop offset="1" stop-color="#16182F"/>
</linearGradient>
<linearGradient id="paint13_linear_259_37" x1="669.091" y1="113.166" x2="790.748" y2="561.65" gradientUnits="userSpaceOnUse">
<stop stop-color="#A1B7E2"/>
<stop offset="1" stop-color="#16182F"/>
</linearGradient>
<linearGradient id="paint14_linear_259_37" x1="669.091" y1="113.166" x2="790.748" y2="561.65" gradientUnits="userSpaceOnUse">
<stop stop-color="#A1B7E2"/>
<stop offset="1" stop-color="#16182F"/>
</linearGradient>
<linearGradient id="paint15_linear_259_37" x1="669.091" y1="113.166" x2="790.748" y2="561.65" gradientUnits="userSpaceOnUse">
<stop stop-color="#A1B7E2"/>
<stop offset="1" stop-color="#16182F"/>
</linearGradient>
<linearGradient id="paint16_linear_259_37" x1="669.091" y1="113.166" x2="790.748" y2="561.65" gradientUnits="userSpaceOnUse">
<stop stop-color="#A1B7E2"/>
<stop offset="1" stop-color="#16182F"/>
</linearGradient>
<linearGradient id="paint17_linear_259_37" x1="669.091" y1="113.166" x2="790.748" y2="561.65" gradientUnits="userSpaceOnUse">
<stop stop-color="#A1B7E2"/>
<stop offset="1" stop-color="#16182F"/>
</linearGradient>
<linearGradient id="paint18_linear_259_37" x1="669.091" y1="113.166" x2="790.748" y2="561.65" gradientUnits="userSpaceOnUse">
<stop stop-color="#A1B7E2"/>
<stop offset="1" stop-color="#16182F"/>
</linearGradient>
<linearGradient id="paint19_linear_259_37" x1="669.091" y1="113.166" x2="790.748" y2="561.65" gradientUnits="userSpaceOnUse">
<stop stop-color="#A1B7E2"/>
<stop offset="1" stop-color="#16182F"/>
</linearGradient>
<linearGradient id="paint20_linear_259_37" x1="669.091" y1="113.166" x2="790.748" y2="561.65" gradientUnits="userSpaceOnUse">
<stop stop-color="#A1B7E2"/>
<stop offset="1" stop-color="#16182F"/>
</linearGradient>
<linearGradient id="paint21_linear_259_37" x1="669.091" y1="113.166" x2="790.748" y2="561.65" gradientUnits="userSpaceOnUse">
<stop stop-color="#A1B7E2"/>
<stop offset="1" stop-color="#16182F"/>
</linearGradient>
<linearGradient id="paint22_linear_259_37" x1="669.091" y1="113.166" x2="790.748" y2="561.65" gradientUnits="userSpaceOnUse">
<stop stop-color="#A1B7E2"/>
<stop offset="1" stop-color="#16182F"/>
</linearGradient>
<linearGradient id="paint23_linear_259_37" x1="669.091" y1="113.166" x2="790.748" y2="561.65" gradientUnits="userSpaceOnUse">
<stop stop-color="#A1B7E2"/>
<stop offset="1" stop-color="#16182F"/>
</linearGradient>
<linearGradient id="paint24_linear_259_37" x1="669.091" y1="113.166" x2="790.748" y2="561.65" gradientUnits="userSpaceOnUse">
<stop stop-color="#A1B7E2"/>
<stop offset="1" stop-color="#16182F"/>
</linearGradient>
<linearGradient id="paint25_linear_259_37" x1="669.091" y1="113.166" x2="790.748" y2="561.65" gradientUnits="userSpaceOnUse">
<stop stop-color="#A1B7E2"/>
<stop offset="1" stop-color="#16182F"/>
</linearGradient>
<linearGradient id="paint26_linear_259_37" x1="669.091" y1="113.166" x2="790.748" y2="561.65" gradientUnits="userSpaceOnUse">
<stop stop-color="#A1B7E2"/>
<stop offset="1" stop-color="#16182F"/>
</linearGradient>
<linearGradient id="paint27_linear_259_37" x1="669.091" y1="113.166" x2="790.748" y2="561.65" gradientUnits="userSpaceOnUse">
<stop stop-color="#A1B7E2"/>
<stop offset="1" stop-color="#16182F"/>
</linearGradient>
<linearGradient id="paint28_linear_259_37" x1="669.091" y1="113.166" x2="790.748" y2="561.65" gradientUnits="userSpaceOnUse">
<stop stop-color="#A1B7E2"/>
<stop offset="1" stop-color="#16182F"/>
</linearGradient>
<linearGradient id="paint29_linear_259_37" x1="669.091" y1="113.166" x2="790.748" y2="561.65" gradientUnits="userSpaceOnUse">
<stop stop-color="#A1B7E2"/>
<stop offset="1" stop-color="#16182F"/>
</linearGradient>
<linearGradient id="paint30_linear_259_37" x1="669.091" y1="113.166" x2="790.748" y2="561.65" gradientUnits="userSpaceOnUse">
<stop stop-color="#A1B7E2"/>
<stop offset="1" stop-color="#16182F"/>
</linearGradient>
<linearGradient id="paint31_linear_259_37" x1="669.091" y1="113.166" x2="790.748" y2="561.65" gradientUnits="userSpaceOnUse">
<stop stop-color="#A1B7E2"/>
<stop offset="1" stop-color="#16182F"/>
</linearGradient>
<linearGradient id="paint32_linear_259_37" x1="669.091" y1="113.166" x2="790.748" y2="561.65" gradientUnits="userSpaceOnUse">
<stop stop-color="#A1B7E2"/>
<stop offset="1" stop-color="#16182F"/>
</linearGradient>
<linearGradient id="paint33_linear_259_37" x1="669.091" y1="113.166" x2="790.748" y2="561.65" gradientUnits="userSpaceOnUse">
<stop stop-color="#A1B7E2"/>
<stop offset="1" stop-color="#16182F"/>
</linearGradient>
<linearGradient id="paint34_linear_259_37" x1="669.091" y1="113.166" x2="790.748" y2="561.65" gradientUnits="userSpaceOnUse">
<stop stop-color="#A1B7E2"/>
<stop offset="1" stop-color="#16182F"/>
</linearGradient>
<linearGradient id="paint35_linear_259_37" x1="595.884" y1="113.673" x2="758.883" y2="417.101" gradientUnits="userSpaceOnUse">
<stop stop-color="#A1B7E2"/>
<stop offset="1" stop-color="#16182F"/>
</linearGradient>
</defs>
</svg>
