<svg width="1761" height="470" viewBox="0 0 1761 470" fill="none" xmlns="http://www.w3.org/2000/svg">
<path d="M64.8763 89.8529C64.8763 78.4012 74.5583 69.1176 86.5017 69.1176H173.003C184.947 69.1176 194.629 78.4012 194.629 89.8529C194.629 101.305 184.947 110.588 173.003 110.588H86.5017C74.5583 110.588 64.8763 101.305 64.8763 89.8529Z" fill="url(#paint0_linear_14_106)"/>
<path d="M64.8763 89.8529C64.8763 78.4012 74.5583 69.1176 86.5017 69.1176H173.003C184.947 69.1176 194.629 78.4012 194.629 89.8529C194.629 101.305 184.947 110.588 173.003 110.588H86.5017C74.5583 110.588 64.8763 101.305 64.8763 89.8529Z" fill="black" fill-opacity="0.2"/>
<path d="M367.632 186.618C355.689 186.618 346.007 177.334 346.007 165.882V82.9412C346.007 71.4894 355.689 62.2059 367.632 62.2059C379.576 62.2059 389.258 71.4894 389.258 82.9412V165.882C389.258 177.334 379.576 186.618 367.632 186.618Z" fill="url(#paint1_linear_14_106)"/>
<path d="M367.632 186.618C355.689 186.618 346.007 177.334 346.007 165.882V82.9412C346.007 71.4894 355.689 62.2059 367.632 62.2059C379.576 62.2059 389.258 71.4894 389.258 82.9412V165.882C389.258 177.334 379.576 186.618 367.632 186.618Z" fill="black" fill-opacity="0.2"/>
<path d="M108.127 407.794C96.1837 407.794 86.5017 398.511 86.5017 387.059V304.118C86.5017 292.666 96.1837 283.382 108.127 283.382C120.071 283.382 129.753 292.666 129.753 304.118V387.059C129.753 398.511 120.071 407.794 108.127 407.794Z" fill="url(#paint2_linear_14_106)"/>
<path d="M108.127 407.794C96.1837 407.794 86.5017 398.511 86.5017 387.059V304.118C86.5017 292.666 96.1837 283.382 108.127 283.382C120.071 283.382 129.753 292.666 129.753 304.118V387.059C129.753 398.511 120.071 407.794 108.127 407.794Z" fill="black" fill-opacity="0.2"/>
<path d="M281.131 449.265C281.131 437.813 290.813 428.529 302.756 428.529C314.699 428.529 324.381 437.813 324.381 449.265C324.381 460.716 314.699 470 302.756 470C290.813 470 281.131 460.716 281.131 449.265Z" fill="url(#paint3_linear_14_106)"/>
<path d="M281.131 449.265C281.131 437.813 290.813 428.529 302.756 428.529C314.699 428.529 324.381 437.813 324.381 449.265C324.381 460.716 314.699 470 302.756 470C290.813 470 281.131 460.716 281.131 449.265Z" fill="black" fill-opacity="0.2"/>
<path d="M434.785 240.82C434.785 229.971 443.957 221.176 455.272 221.176C466.587 221.176 475.759 229.971 475.759 240.82V243.003C475.759 253.852 466.587 262.647 455.272 262.647C443.957 262.647 434.785 253.852 434.785 243.003V240.82Z" fill="url(#paint4_linear_14_106)"/>
<path d="M434.785 240.82C434.785 229.971 443.957 221.176 455.272 221.176C466.587 221.176 475.759 229.971 475.759 240.82V243.003C475.759 253.852 466.587 262.647 455.272 262.647C443.957 262.647 434.785 253.852 434.785 243.003V240.82Z" fill="black" fill-opacity="0.2"/>
<path d="M346.007 240.82C346.007 229.971 355.179 221.176 366.494 221.176C377.809 221.176 386.981 229.971 386.981 240.82V243.003C386.981 253.852 377.809 262.647 366.494 262.647C355.179 262.647 346.007 253.852 346.007 243.003V240.82Z" fill="url(#paint5_linear_14_106)"/>
<path d="M346.007 240.82C346.007 229.971 355.179 221.176 366.494 221.176C377.809 221.176 386.981 229.971 386.981 240.82V243.003C386.981 253.852 377.809 262.647 366.494 262.647C355.179 262.647 346.007 253.852 346.007 243.003V240.82Z" fill="black" fill-opacity="0.2"/>
<path d="M373.323 235H448.443V248.824H373.323V235Z" fill="url(#paint6_linear_14_106)"/>
<path d="M373.323 235H448.443V248.824H373.323V235Z" fill="black" fill-opacity="0.2"/>
<path d="M236.741 384.876C225.427 384.876 216.254 376.081 216.254 365.232C216.254 354.383 225.427 345.588 236.741 345.588H239.018C250.333 345.588 259.505 354.383 259.505 365.232C259.505 376.081 250.333 384.876 239.018 384.876H236.741Z" fill="url(#paint7_linear_14_106)"/>
<path d="M236.741 384.876C225.427 384.876 216.254 376.081 216.254 365.232C216.254 354.383 225.427 345.588 236.741 345.588H239.018C250.333 345.588 259.505 354.383 259.505 365.232C259.505 376.081 250.333 384.876 239.018 384.876H236.741Z" fill="black" fill-opacity="0.2"/>
<path d="M236.741 470C225.427 470 216.254 461.205 216.254 450.356C216.254 439.507 225.427 430.712 236.741 430.712H239.018C250.333 430.712 259.505 439.507 259.505 450.356C259.505 461.205 250.333 470 239.018 470H236.741Z" fill="url(#paint8_linear_14_106)"/>
<path d="M236.741 470C225.427 470 216.254 461.205 216.254 450.356C216.254 439.507 225.427 430.712 236.741 430.712H239.018C250.333 430.712 259.505 439.507 259.505 450.356C259.505 461.205 250.333 470 239.018 470H236.741Z" fill="black" fill-opacity="0.2"/>
<path d="M230.671 443.808V371.78H245.088V443.808H230.671Z" fill="url(#paint9_linear_14_106)"/>
<path d="M230.671 443.808V371.78H245.088V443.808H230.671Z" fill="black" fill-opacity="0.2"/>
<path d="M236.741 39.2879C225.427 39.2879 216.254 30.493 216.254 19.644C216.254 8.79491 225.427 3.29579e-06 236.741 3.29579e-06H239.018C250.333 3.29579e-06 259.505 8.79491 259.505 19.644C259.505 30.493 250.333 39.2879 239.018 39.2879H236.741Z" fill="url(#paint10_linear_14_106)"/>
<path d="M236.741 39.2879C225.427 39.2879 216.254 30.493 216.254 19.644C216.254 8.79491 225.427 3.29579e-06 236.741 3.29579e-06H239.018C250.333 3.29579e-06 259.505 8.79491 259.505 19.644C259.505 30.493 250.333 39.2879 239.018 39.2879H236.741Z" fill="black" fill-opacity="0.2"/>
<path d="M236.741 124.412C225.427 124.412 216.254 115.617 216.254 104.768C216.254 93.9187 225.427 85.1238 236.741 85.1238H239.018C250.333 85.1238 259.505 93.9187 259.505 104.768C259.505 115.617 250.333 124.412 239.018 124.412H236.741Z" fill="url(#paint11_linear_14_106)"/>
<path d="M236.741 124.412C225.427 124.412 216.254 115.617 216.254 104.768C216.254 93.9187 225.427 85.1238 236.741 85.1238H239.018C250.333 85.1238 259.505 93.9187 259.505 104.768C259.505 115.617 250.333 124.412 239.018 124.412H236.741Z" fill="black" fill-opacity="0.2"/>
<path d="M230.671 98.2198V26.1919H245.088V98.2198H230.671Z" fill="url(#paint12_linear_14_106)"/>
<path d="M230.671 98.2198V26.1919H245.088V98.2198H230.671Z" fill="black" fill-opacity="0.2"/>
<path d="M88.7781 240.82C88.7781 229.971 97.9505 221.176 109.265 221.176C120.58 221.176 129.753 229.971 129.753 240.82V243.003C129.753 253.852 120.58 262.647 109.265 262.647C97.9505 262.647 88.7781 253.852 88.7781 243.003V240.82Z" fill="url(#paint13_linear_14_106)"/>
<path d="M88.7781 240.82C88.7781 229.971 97.9505 221.176 109.265 221.176C120.58 221.176 129.753 229.971 129.753 240.82V243.003C129.753 253.852 120.58 262.647 109.265 262.647C97.9505 262.647 88.7781 253.852 88.7781 243.003V240.82Z" fill="black" fill-opacity="0.2"/>
<path d="M0 240.82C0 229.971 9.17245 221.176 20.4872 221.176C31.802 221.176 40.9745 229.971 40.9745 240.82V243.003C40.9745 253.852 31.802 262.647 20.4872 262.647C9.17245 262.647 0 253.852 0 243.003V240.82Z" fill="url(#paint14_linear_14_106)"/>
<path d="M0 240.82C0 229.971 9.17245 221.176 20.4872 221.176C31.802 221.176 40.9745 229.971 40.9745 240.82V243.003C40.9745 253.852 31.802 262.647 20.4872 262.647C9.17245 262.647 0 253.852 0 243.003V240.82Z" fill="black" fill-opacity="0.2"/>
<path d="M27.3163 235H102.436V248.824H27.3163V235Z" fill="url(#paint15_linear_14_106)"/>
<path d="M27.3163 235H102.436V248.824H27.3163V235Z" fill="black" fill-opacity="0.2"/>
<path d="M374.841 304.118C374.841 292.666 384.523 283.382 396.466 283.382H454.134C466.077 283.382 475.759 292.666 475.759 304.118C475.759 315.569 466.077 324.853 454.134 324.853H396.466C384.523 324.853 374.841 315.569 374.841 304.118Z" fill="url(#paint16_linear_14_106)"/>
<path d="M374.841 304.118C374.841 292.666 384.523 283.382 396.466 283.382H454.134C466.077 283.382 475.759 292.666 475.759 304.118C475.759 315.569 466.077 324.853 454.134 324.853H396.466C384.523 324.853 374.841 315.569 374.841 304.118Z" fill="black" fill-opacity="0.2"/>
<path d="M324.381 297.206H382.049V311.029H324.381V297.206Z" fill="url(#paint17_linear_14_106)"/>
<path d="M324.381 297.206H382.049V311.029H324.381V297.206Z" fill="black" fill-opacity="0.2"/>
<path d="M281.131 304.118C281.131 292.666 290.813 283.382 302.756 283.382C314.699 283.382 324.381 292.666 324.381 304.118C324.381 315.569 314.699 324.853 302.756 324.853C290.813 324.853 281.131 315.569 281.131 304.118Z" fill="url(#paint18_linear_14_106)"/>
<path d="M281.131 304.118C281.131 292.666 290.813 283.382 302.756 283.382C314.699 283.382 324.381 292.666 324.381 304.118C324.381 315.569 314.699 324.853 302.756 324.853C290.813 324.853 281.131 315.569 281.131 304.118Z" fill="black" fill-opacity="0.2"/>
<path d="M374.841 304.118C374.841 292.666 384.523 283.382 396.466 283.382H454.134C466.077 283.382 475.759 292.666 475.759 304.118C475.759 315.569 466.077 324.853 454.134 324.853H396.466C384.523 324.853 374.841 315.569 374.841 304.118Z" fill="url(#paint19_linear_14_106)"/>
<path d="M374.841 304.118C374.841 292.666 384.523 283.382 396.466 283.382H454.134C466.077 283.382 475.759 292.666 475.759 304.118C475.759 315.569 466.077 324.853 454.134 324.853H396.466C384.523 324.853 374.841 315.569 374.841 304.118Z" fill="black" fill-opacity="0.2"/>
<path d="M309.964 297.206H382.049V311.029H309.964V297.206Z" fill="url(#paint20_linear_14_106)"/>
<path d="M309.964 297.206H382.049V311.029H309.964V297.206Z" fill="black" fill-opacity="0.2"/>
<path d="M281.131 304.118C281.131 292.666 290.813 283.382 302.756 283.382C314.699 283.382 324.381 292.666 324.381 304.118C324.381 315.569 314.699 324.853 302.756 324.853C290.813 324.853 281.131 315.569 281.131 304.118Z" fill="url(#paint21_linear_14_106)"/>
<path d="M281.131 304.118C281.131 292.666 290.813 283.382 302.756 283.382C314.699 283.382 324.381 292.666 324.381 304.118C324.381 315.569 314.699 324.853 302.756 324.853C290.813 324.853 281.131 315.569 281.131 304.118Z" fill="black" fill-opacity="0.2"/>
<path d="M100.919 165.882C100.919 177.334 91.2366 186.618 79.2932 186.618H21.6254C9.68204 186.618 0 177.334 0 165.882C0 154.431 9.68203 145.147 21.6254 145.147H79.2932C91.2366 145.147 100.919 154.431 100.919 165.882Z" fill="url(#paint22_linear_14_106)"/>
<path d="M100.919 165.882C100.919 177.334 91.2366 186.618 79.2932 186.618H21.6254C9.68204 186.618 0 177.334 0 165.882C0 154.431 9.68203 145.147 21.6254 145.147H79.2932C91.2366 145.147 100.919 154.431 100.919 165.882Z" fill="black" fill-opacity="0.2"/>
<path d="M165.795 172.794H86.5017V158.971H165.795V172.794Z" fill="url(#paint23_linear_14_106)"/>
<path d="M165.795 172.794H86.5017V158.971H165.795V172.794Z" fill="black" fill-opacity="0.2"/>
<path d="M194.629 165.882C194.629 177.334 184.947 186.618 173.003 186.618C161.06 186.618 151.378 177.334 151.378 165.882C151.378 154.431 161.06 145.147 173.003 145.147C184.947 145.147 194.629 154.431 194.629 165.882Z" fill="url(#paint24_linear_14_106)"/>
<path d="M194.629 165.882C194.629 177.334 184.947 186.618 173.003 186.618C161.06 186.618 151.378 177.334 151.378 165.882C151.378 154.431 161.06 145.147 173.003 145.147C184.947 145.147 194.629 154.431 194.629 165.882Z" fill="black" fill-opacity="0.2"/>
<path d="M173.003 373.235C184.947 373.235 194.629 382.519 194.629 393.971V449.265C194.629 460.716 184.947 470 173.003 470C161.06 470 151.378 460.716 151.378 449.265V393.971C151.378 382.519 161.06 373.235 173.003 373.235Z" fill="url(#paint25_linear_14_106)"/>
<path d="M173.003 373.235C184.947 373.235 194.629 382.519 194.629 393.971V449.265C194.629 460.716 184.947 470 173.003 470C161.06 470 151.378 460.716 151.378 449.265V393.971C151.378 382.519 161.06 373.235 173.003 373.235Z" fill="black" fill-opacity="0.2"/>
<path d="M180.212 311.029V407.794H165.795V311.029H180.212Z" fill="url(#paint26_linear_14_106)"/>
<path d="M180.212 311.029V407.794H165.795V311.029H180.212Z" fill="black" fill-opacity="0.2"/>
<path d="M173.003 283.382C184.947 283.382 194.629 292.666 194.629 304.118C194.629 315.569 184.947 324.853 173.003 324.853C161.06 324.853 151.378 315.569 151.378 304.118C151.378 292.666 161.06 283.382 173.003 283.382Z" fill="url(#paint27_linear_14_106)"/>
<path d="M173.003 283.382C184.947 283.382 194.629 292.666 194.629 304.118C194.629 315.569 184.947 324.853 173.003 324.853C161.06 324.853 151.378 315.569 151.378 304.118C151.378 292.666 161.06 283.382 173.003 283.382Z" fill="black" fill-opacity="0.2"/>
<path d="M302.756 96.7647C290.813 96.7647 281.131 87.4812 281.131 76.0294V20.7353C281.131 9.28351 290.813 0 302.756 0C314.699 0 324.381 9.28351 324.381 20.7353V76.0294C324.381 87.4812 314.699 96.7647 302.756 96.7647Z" fill="url(#paint28_linear_14_106)"/>
<path d="M302.756 96.7647C290.813 96.7647 281.131 87.4812 281.131 76.0294V20.7353C281.131 9.28351 290.813 0 302.756 0C314.699 0 324.381 9.28351 324.381 20.7353V76.0294C324.381 87.4812 314.699 96.7647 302.756 96.7647Z" fill="black" fill-opacity="0.2"/>
<path d="M295.547 165.882V62.2059H309.964V165.882H295.547Z" fill="url(#paint29_linear_14_106)"/>
<path d="M295.547 165.882V62.2059H309.964V165.882H295.547Z" fill="black" fill-opacity="0.2"/>
<path d="M302.756 186.618C290.813 186.618 281.131 177.334 281.131 165.882C281.131 154.431 290.813 145.147 302.756 145.147C314.699 145.147 324.381 154.431 324.381 165.882C324.381 177.334 314.699 186.618 302.756 186.618Z" fill="url(#paint30_linear_14_106)"/>
<path d="M302.756 186.618C290.813 186.618 281.131 177.334 281.131 165.882C281.131 154.431 290.813 145.147 302.756 145.147C314.699 145.147 324.381 154.431 324.381 165.882C324.381 177.334 314.699 186.618 302.756 186.618Z" fill="black" fill-opacity="0.2"/>
<path d="M432.508 165.882C432.508 154.431 442.191 145.147 454.134 145.147C466.077 145.147 475.759 154.431 475.759 165.882C475.759 177.334 466.077 186.618 454.134 186.618C442.191 186.618 432.508 177.334 432.508 165.882Z" fill="url(#paint31_linear_14_106)"/>
<path d="M432.508 165.882C432.508 154.431 442.191 145.147 454.134 145.147C466.077 145.147 475.759 154.431 475.759 165.882C475.759 177.334 466.077 186.618 454.134 186.618C442.191 186.618 432.508 177.334 432.508 165.882Z" fill="black" fill-opacity="0.2"/>
<path d="M151.378 20.7353C151.378 9.28351 161.06 0 173.003 0C184.947 0 194.629 9.28351 194.629 20.7353C194.629 32.1871 184.947 41.4706 173.003 41.4706C161.06 41.4706 151.378 32.1871 151.378 20.7353Z" fill="url(#paint32_linear_14_106)"/>
<path d="M151.378 20.7353C151.378 9.28351 161.06 0 173.003 0C184.947 0 194.629 9.28351 194.629 20.7353C194.629 32.1871 184.947 41.4706 173.003 41.4706C161.06 41.4706 151.378 32.1871 151.378 20.7353Z" fill="black" fill-opacity="0.2"/>
<path d="M0 304.118C0 292.666 9.68203 283.382 21.6254 283.382C33.5688 283.382 43.2509 292.666 43.2509 304.118C43.2509 315.569 33.5688 324.853 21.6254 324.853C9.68203 324.853 0 315.569 0 304.118Z" fill="url(#paint33_linear_14_106)"/>
<path d="M0 304.118C0 292.666 9.68203 283.382 21.6254 283.382C33.5688 283.382 43.2509 292.666 43.2509 304.118C43.2509 315.569 33.5688 324.853 21.6254 324.853C9.68203 324.853 0 315.569 0 304.118Z" fill="black" fill-opacity="0.2"/>
<path d="M281.131 373.235C281.131 361.783 290.813 352.5 302.756 352.5H389.258C401.201 352.5 410.883 361.783 410.883 373.235C410.883 384.687 401.201 393.971 389.258 393.971H302.756C290.813 393.971 281.131 384.687 281.131 373.235Z" fill="url(#paint34_linear_14_106)"/>
<path d="M281.131 373.235C281.131 361.783 290.813 352.5 302.756 352.5H389.258C401.201 352.5 410.883 361.783 410.883 373.235C410.883 384.687 401.201 393.971 389.258 393.971H302.756C290.813 393.971 281.131 384.687 281.131 373.235Z" fill="black" fill-opacity="0.2"/>
<path d="M533.685 257.381V62.0563H600.492C616.003 62.0563 628.682 64.8221 638.529 70.3537C648.441 75.8218 655.778 83.2292 660.541 92.5758C665.304 101.922 667.685 112.35 667.685 123.858C667.685 135.367 665.304 145.826 660.541 155.236C655.843 164.646 648.57 172.149 638.722 177.744C628.875 183.276 616.26 186.042 600.878 186.042H552.993V165.06H600.106C610.725 165.06 619.253 163.247 625.689 159.623C632.125 155.999 636.792 151.103 639.688 144.936C642.649 138.705 644.129 131.679 644.129 123.858C644.129 116.038 642.649 109.044 639.688 102.876C636.792 96.7086 632.093 91.8763 625.593 88.3793C619.092 84.8187 610.468 83.0384 599.719 83.0384H557.627V257.381H533.685Z" fill="#2C2E3C"/>
<path d="M706.254 257.381V62.0563H773.061C788.507 62.0563 801.187 64.6631 811.098 69.8769C821.01 75.027 828.347 82.1165 833.11 91.1451C837.873 100.174 840.254 110.442 840.254 121.951C840.254 133.459 837.873 143.664 833.11 152.566C828.347 161.467 821.042 168.461 811.195 173.548C801.348 178.571 788.765 181.082 773.447 181.082H719.383V159.719H772.675C783.23 159.719 791.726 158.193 798.162 155.141C804.662 152.089 809.361 147.765 812.257 142.17C815.217 136.511 816.698 129.771 816.698 121.951C816.698 114.13 815.217 107.295 812.257 101.445C809.296 95.5959 804.566 91.0816 798.065 87.9025C791.565 84.6598 782.972 83.0384 772.288 83.0384H730.196V257.381H706.254ZM799.32 169.637L847.977 257.381H820.173L772.288 169.637H799.32Z" fill="#2C2E3C"/>
<path d="M1046.97 159.719C1046.97 180.319 1043.21 198.122 1035.68 213.128C1028.15 228.133 1017.82 239.705 1004.69 247.844C991.56 255.982 976.563 260.051 959.701 260.051C942.838 260.051 927.842 255.982 914.712 247.844C901.582 239.705 891.252 228.133 883.722 213.128C876.192 198.122 872.427 180.319 872.427 159.719C872.427 139.118 876.192 121.315 883.722 106.31C891.252 91.3041 901.582 79.7321 914.712 71.5936C927.842 63.4551 942.838 59.3858 959.701 59.3858C976.563 59.3858 991.56 63.4551 1004.69 71.5936C1017.82 79.7321 1028.15 91.3041 1035.68 106.31C1043.21 121.315 1046.97 139.118 1046.97 159.719ZM1023.8 159.719C1023.8 142.806 1020.94 128.532 1015.21 116.896C1009.55 105.26 1001.86 96.4543 992.139 90.4775C982.485 84.5008 971.672 81.5124 959.701 81.5124C947.73 81.5124 936.885 84.5008 927.166 90.4775C917.512 96.4543 909.821 105.26 904.092 116.896C898.429 128.532 895.597 142.806 895.597 159.719C895.597 176.631 898.429 190.906 904.092 202.541C909.821 214.177 917.512 222.983 927.166 228.96C936.885 234.936 947.73 237.925 959.701 237.925C971.672 237.925 982.485 234.936 992.139 228.96C1001.86 222.983 1009.55 214.177 1015.21 202.541C1020.94 190.906 1023.8 176.631 1023.8 159.719Z" fill="#2C2E3C"/>
<path d="M1087.23 257.381V62.0563H1154.04C1169.55 62.0563 1182.23 64.8221 1192.08 70.3537C1201.99 75.8218 1209.33 83.2292 1214.09 92.5758C1218.85 101.922 1221.23 112.35 1221.23 123.858C1221.23 135.367 1218.85 145.826 1214.09 155.236C1209.39 164.646 1202.12 172.149 1192.27 177.744C1182.42 183.276 1169.81 186.042 1154.43 186.042H1106.54V165.06H1153.65C1164.27 165.06 1172.8 163.247 1179.24 159.623C1185.67 155.999 1190.34 151.103 1193.24 144.936C1196.2 138.705 1197.68 131.679 1197.68 123.858C1197.68 116.038 1196.2 109.044 1193.24 102.876C1190.34 96.7086 1185.64 91.8763 1179.14 88.3793C1172.64 84.8187 1164.02 83.0384 1153.27 83.0384H1111.18V257.381H1087.23Z" fill="#2C2E3C"/>
<path d="M1259.8 257.381V62.0563H1283.74V149.037H1389.17V62.0563H1413.11V257.381H1389.17V170.019H1283.74V257.381H1259.8Z" fill="#2C2E3C"/>
<path d="M1461.04 257.381V62.0563H1580.37V83.0384H1484.99V149.037H1574.19V170.019H1484.99V236.399H1581.91V257.381H1461.04Z" fill="#2C2E3C"/>
<path d="M1612.71 83.0384V62.0563H1761V83.0384H1698.83V257.381H1674.88V83.0384H1612.71Z" fill="#2C2E3C"/>
<path d="M525.229 425.238H514.191L556.147 311.299H567.41L609.366 425.238H598.328L562.173 324.818H561.384L525.229 425.238ZM533.17 381.565H590.387V390.912H533.17V381.565Z" fill="#2C2E3C"/>
<path d="M763.361 311.299V425.238H753.112L684.969 329.825H684.068V425.238H673.537V311.299H683.73L752.098 406.823H752.999V311.299H763.361Z" fill="#2C2E3C"/>
<path d="M838.598 425.238H827.561L869.516 311.299H880.779L922.735 425.238H911.697L875.542 324.818H874.754L838.598 425.238ZM846.539 381.565H903.756V390.912H846.539V381.565Z" fill="#2C2E3C"/>
<path d="M986.906 425.238V311.299H997.437V415.891H1052.4V425.238H986.906Z" fill="#2C2E3C"/>
<path d="M1104.28 311.299H1116.45L1150.63 365.375H1151.64L1185.83 311.299H1197.99L1156.37 375.89V425.238H1145.9V375.89L1104.28 311.299Z" fill="#2C2E3C"/>
<path d="M1262.47 320.645V311.299H1346.1V320.645H1309.55V425.238H1299.02V320.645H1262.47Z" fill="#2C2E3C"/>
<path d="M1424.75 311.299V425.238H1414.22V311.299H1424.75Z" fill="#2C2E3C"/>
<path d="M1590.15 346.905H1579.56C1578.77 343.01 1577.34 339.413 1575.28 336.112C1573.25 332.774 1570.7 329.862 1567.62 327.377C1564.54 324.892 1561.05 322.963 1557.15 321.591C1553.24 320.219 1549.02 319.533 1544.47 319.533C1537.19 319.533 1530.55 321.406 1524.54 325.152C1518.57 328.898 1513.78 334.406 1510.18 341.675C1506.61 348.908 1504.83 357.772 1504.83 368.268C1504.83 378.839 1506.61 387.74 1510.18 394.973C1513.78 402.205 1518.57 407.695 1524.54 411.441C1530.55 415.15 1537.19 417.004 1544.47 417.004C1549.02 417.004 1553.24 416.318 1557.15 414.946C1561.05 413.573 1564.54 411.663 1567.62 409.215C1570.7 406.73 1573.25 403.819 1575.28 400.481C1577.34 397.143 1578.77 393.526 1579.56 389.632H1590.15C1589.21 394.862 1587.44 399.739 1584.85 404.264C1582.3 408.752 1579.03 412.683 1575.05 416.058C1571.11 419.434 1566.57 422.067 1561.43 423.958C1556.28 425.85 1550.63 426.796 1544.47 426.796C1534.79 426.796 1526.19 424.404 1518.68 419.619C1511.17 414.797 1505.28 408.01 1501 399.257C1496.76 390.504 1494.63 380.174 1494.63 368.268C1494.63 356.363 1496.76 346.033 1501 337.28C1505.28 328.527 1511.17 321.758 1518.68 316.973C1526.19 312.152 1534.79 309.741 1544.47 309.741C1550.63 309.741 1556.28 310.687 1561.43 312.578C1566.57 314.433 1571.11 317.066 1575.05 320.478C1579.03 323.854 1582.3 327.785 1584.85 332.273C1587.44 336.761 1589.21 341.638 1590.15 346.905Z" fill="#2C2E3C"/>
<path d="M1721.91 339.784C1721.27 333.441 1718.44 328.397 1713.41 324.651C1708.38 320.905 1702.05 319.032 1694.43 319.032C1689.06 319.032 1684.33 319.941 1680.24 321.758C1676.18 323.575 1672.99 326.097 1670.66 329.324C1668.37 332.514 1667.23 336.149 1667.23 340.229C1667.23 343.233 1667.89 345.866 1669.2 348.129C1670.51 350.391 1672.28 352.338 1674.49 353.97C1676.75 355.565 1679.22 356.937 1681.93 358.087C1684.67 359.237 1687.43 360.201 1690.21 360.98L1702.37 364.43C1706.05 365.431 1709.73 366.711 1713.41 368.268C1717.09 369.826 1720.45 371.792 1723.49 374.166C1726.57 376.502 1729.03 379.377 1730.87 382.789C1732.74 386.164 1733.68 390.225 1733.68 394.973C1733.68 401.056 1732.09 406.526 1728.89 411.385C1725.7 416.244 1721.12 420.101 1715.15 422.957C1709.18 425.776 1702.03 427.185 1693.7 427.185C1685.85 427.185 1679.04 425.906 1673.25 423.346C1667.47 420.75 1662.93 417.171 1659.63 412.609C1656.32 408.047 1654.46 402.762 1654.05 396.753H1664.86C1665.24 401.241 1666.74 405.043 1669.37 408.158C1672 411.274 1675.41 413.648 1679.62 415.28C1683.82 416.874 1688.52 417.672 1693.7 417.672C1699.44 417.672 1704.55 416.726 1709.02 414.834C1713.52 412.906 1717.05 410.235 1719.6 406.823C1722.19 403.374 1723.49 399.368 1723.49 394.806C1723.49 390.949 1722.47 387.722 1720.45 385.126C1718.42 382.492 1715.59 380.285 1711.94 378.505C1708.34 376.725 1704.15 375.149 1699.39 373.776L1685.59 369.771C1676.54 367.1 1669.52 363.41 1664.53 358.699C1659.53 353.989 1657.04 347.98 1657.04 340.674C1657.04 334.554 1658.69 329.176 1661.99 324.54C1665.33 319.866 1669.84 316.232 1675.51 313.635C1681.21 311.002 1687.62 309.685 1694.71 309.685C1701.88 309.685 1708.23 310.983 1713.75 313.58C1719.26 316.176 1723.64 319.755 1726.87 324.317C1730.13 328.842 1731.88 333.998 1732.1 339.784H1721.91Z" fill="#2C2E3C"/>
<defs>
<linearGradient id="paint0_linear_14_106" x1="186.773" y1="24.1912" x2="380.829" y2="739.572" gradientUnits="userSpaceOnUse">
<stop stop-color="#A1B7E2"/>
<stop offset="1" stop-color="#16182F"/>
</linearGradient>
<linearGradient id="paint1_linear_14_106" x1="186.773" y1="24.1912" x2="380.829" y2="739.572" gradientUnits="userSpaceOnUse">
<stop stop-color="#A1B7E2"/>
<stop offset="1" stop-color="#16182F"/>
</linearGradient>
<linearGradient id="paint2_linear_14_106" x1="186.773" y1="24.1912" x2="380.829" y2="739.572" gradientUnits="userSpaceOnUse">
<stop stop-color="#A1B7E2"/>
<stop offset="1" stop-color="#16182F"/>
</linearGradient>
<linearGradient id="paint3_linear_14_106" x1="186.773" y1="24.1912" x2="380.829" y2="739.572" gradientUnits="userSpaceOnUse">
<stop stop-color="#A1B7E2"/>
<stop offset="1" stop-color="#16182F"/>
</linearGradient>
<linearGradient id="paint4_linear_14_106" x1="186.773" y1="24.1912" x2="380.829" y2="739.572" gradientUnits="userSpaceOnUse">
<stop stop-color="#A1B7E2"/>
<stop offset="1" stop-color="#16182F"/>
</linearGradient>
<linearGradient id="paint5_linear_14_106" x1="186.773" y1="24.1912" x2="380.829" y2="739.572" gradientUnits="userSpaceOnUse">
<stop stop-color="#A1B7E2"/>
<stop offset="1" stop-color="#16182F"/>
</linearGradient>
<linearGradient id="paint6_linear_14_106" x1="186.773" y1="24.1912" x2="380.829" y2="739.572" gradientUnits="userSpaceOnUse">
<stop stop-color="#A1B7E2"/>
<stop offset="1" stop-color="#16182F"/>
</linearGradient>
<linearGradient id="paint7_linear_14_106" x1="186.773" y1="24.1912" x2="380.829" y2="739.572" gradientUnits="userSpaceOnUse">
<stop stop-color="#A1B7E2"/>
<stop offset="1" stop-color="#16182F"/>
</linearGradient>
<linearGradient id="paint8_linear_14_106" x1="186.773" y1="24.1912" x2="380.829" y2="739.572" gradientUnits="userSpaceOnUse">
<stop stop-color="#A1B7E2"/>
<stop offset="1" stop-color="#16182F"/>
</linearGradient>
<linearGradient id="paint9_linear_14_106" x1="186.773" y1="24.1912" x2="380.829" y2="739.572" gradientUnits="userSpaceOnUse">
<stop stop-color="#A1B7E2"/>
<stop offset="1" stop-color="#16182F"/>
</linearGradient>
<linearGradient id="paint10_linear_14_106" x1="186.773" y1="24.1912" x2="380.829" y2="739.572" gradientUnits="userSpaceOnUse">
<stop stop-color="#A1B7E2"/>
<stop offset="1" stop-color="#16182F"/>
</linearGradient>
<linearGradient id="paint11_linear_14_106" x1="186.773" y1="24.1912" x2="380.829" y2="739.572" gradientUnits="userSpaceOnUse">
<stop stop-color="#A1B7E2"/>
<stop offset="1" stop-color="#16182F"/>
</linearGradient>
<linearGradient id="paint12_linear_14_106" x1="186.773" y1="24.1912" x2="380.829" y2="739.572" gradientUnits="userSpaceOnUse">
<stop stop-color="#A1B7E2"/>
<stop offset="1" stop-color="#16182F"/>
</linearGradient>
<linearGradient id="paint13_linear_14_106" x1="186.773" y1="24.1912" x2="380.829" y2="739.572" gradientUnits="userSpaceOnUse">
<stop stop-color="#A1B7E2"/>
<stop offset="1" stop-color="#16182F"/>
</linearGradient>
<linearGradient id="paint14_linear_14_106" x1="186.773" y1="24.1912" x2="380.829" y2="739.572" gradientUnits="userSpaceOnUse">
<stop stop-color="#A1B7E2"/>
<stop offset="1" stop-color="#16182F"/>
</linearGradient>
<linearGradient id="paint15_linear_14_106" x1="186.773" y1="24.1912" x2="380.829" y2="739.572" gradientUnits="userSpaceOnUse">
<stop stop-color="#A1B7E2"/>
<stop offset="1" stop-color="#16182F"/>
</linearGradient>
<linearGradient id="paint16_linear_14_106" x1="186.773" y1="24.1912" x2="380.829" y2="739.572" gradientUnits="userSpaceOnUse">
<stop stop-color="#A1B7E2"/>
<stop offset="1" stop-color="#16182F"/>
</linearGradient>
<linearGradient id="paint17_linear_14_106" x1="186.773" y1="24.1912" x2="380.829" y2="739.572" gradientUnits="userSpaceOnUse">
<stop stop-color="#A1B7E2"/>
<stop offset="1" stop-color="#16182F"/>
</linearGradient>
<linearGradient id="paint18_linear_14_106" x1="186.773" y1="24.1912" x2="380.829" y2="739.572" gradientUnits="userSpaceOnUse">
<stop stop-color="#A1B7E2"/>
<stop offset="1" stop-color="#16182F"/>
</linearGradient>
<linearGradient id="paint19_linear_14_106" x1="186.773" y1="24.1912" x2="380.829" y2="739.572" gradientUnits="userSpaceOnUse">
<stop stop-color="#A1B7E2"/>
<stop offset="1" stop-color="#16182F"/>
</linearGradient>
<linearGradient id="paint20_linear_14_106" x1="186.773" y1="24.1912" x2="380.829" y2="739.572" gradientUnits="userSpaceOnUse">
<stop stop-color="#A1B7E2"/>
<stop offset="1" stop-color="#16182F"/>
</linearGradient>
<linearGradient id="paint21_linear_14_106" x1="186.773" y1="24.1912" x2="380.829" y2="739.572" gradientUnits="userSpaceOnUse">
<stop stop-color="#A1B7E2"/>
<stop offset="1" stop-color="#16182F"/>
</linearGradient>
<linearGradient id="paint22_linear_14_106" x1="186.773" y1="24.1912" x2="380.829" y2="739.572" gradientUnits="userSpaceOnUse">
<stop stop-color="#A1B7E2"/>
<stop offset="1" stop-color="#16182F"/>
</linearGradient>
<linearGradient id="paint23_linear_14_106" x1="186.773" y1="24.1912" x2="380.829" y2="739.572" gradientUnits="userSpaceOnUse">
<stop stop-color="#A1B7E2"/>
<stop offset="1" stop-color="#16182F"/>
</linearGradient>
<linearGradient id="paint24_linear_14_106" x1="186.773" y1="24.1912" x2="380.829" y2="739.572" gradientUnits="userSpaceOnUse">
<stop stop-color="#A1B7E2"/>
<stop offset="1" stop-color="#16182F"/>
</linearGradient>
<linearGradient id="paint25_linear_14_106" x1="186.773" y1="24.1912" x2="380.829" y2="739.572" gradientUnits="userSpaceOnUse">
<stop stop-color="#A1B7E2"/>
<stop offset="1" stop-color="#16182F"/>
</linearGradient>
<linearGradient id="paint26_linear_14_106" x1="186.773" y1="24.1912" x2="380.829" y2="739.572" gradientUnits="userSpaceOnUse">
<stop stop-color="#A1B7E2"/>
<stop offset="1" stop-color="#16182F"/>
</linearGradient>
<linearGradient id="paint27_linear_14_106" x1="186.773" y1="24.1912" x2="380.829" y2="739.572" gradientUnits="userSpaceOnUse">
<stop stop-color="#A1B7E2"/>
<stop offset="1" stop-color="#16182F"/>
</linearGradient>
<linearGradient id="paint28_linear_14_106" x1="186.773" y1="24.1912" x2="380.829" y2="739.572" gradientUnits="userSpaceOnUse">
<stop stop-color="#A1B7E2"/>
<stop offset="1" stop-color="#16182F"/>
</linearGradient>
<linearGradient id="paint29_linear_14_106" x1="186.773" y1="24.1912" x2="380.829" y2="739.572" gradientUnits="userSpaceOnUse">
<stop stop-color="#A1B7E2"/>
<stop offset="1" stop-color="#16182F"/>
</linearGradient>
<linearGradient id="paint30_linear_14_106" x1="186.773" y1="24.1912" x2="380.829" y2="739.572" gradientUnits="userSpaceOnUse">
<stop stop-color="#A1B7E2"/>
<stop offset="1" stop-color="#16182F"/>
</linearGradient>
<linearGradient id="paint31_linear_14_106" x1="186.773" y1="24.1912" x2="380.829" y2="739.572" gradientUnits="userSpaceOnUse">
<stop stop-color="#A1B7E2"/>
<stop offset="1" stop-color="#16182F"/>
</linearGradient>
<linearGradient id="paint32_linear_14_106" x1="186.773" y1="24.1912" x2="380.829" y2="739.572" gradientUnits="userSpaceOnUse">
<stop stop-color="#A1B7E2"/>
<stop offset="1" stop-color="#16182F"/>
</linearGradient>
<linearGradient id="paint33_linear_14_106" x1="186.773" y1="24.1912" x2="380.829" y2="739.572" gradientUnits="userSpaceOnUse">
<stop stop-color="#A1B7E2"/>
<stop offset="1" stop-color="#16182F"/>
</linearGradient>
<linearGradient id="paint34_linear_14_106" x1="186.773" y1="24.1912" x2="380.829" y2="739.572" gradientUnits="userSpaceOnUse">
<stop stop-color="#A1B7E2"/>
<stop offset="1" stop-color="#16182F"/>
</linearGradient>
</defs>
</svg>
