<svg width="1427" height="435" viewBox="0 0 1427 435" fill="none" xmlns="http://www.w3.org/2000/svg">
<path d="M52.5715 83.1618C52.5715 72.5628 60.4172 63.9706 70.0954 63.9706H140.191C149.869 63.9706 157.715 72.5628 157.715 83.1618C157.715 93.7608 149.869 102.353 140.191 102.353H70.0954C60.4172 102.353 52.5715 93.7608 52.5715 83.1618Z" fill="url(#paint0_linear_14_106)"/>
<path d="M52.5715 83.1618C52.5715 72.5628 60.4172 63.9706 70.0954 63.9706H140.191C149.869 63.9706 157.715 72.5628 157.715 83.1618C157.715 93.7608 149.869 102.353 140.191 102.353H70.0954C60.4172 102.353 52.5715 93.7608 52.5715 83.1618Z" fill="black" fill-opacity="0.2"/>
<path d="M297.905 172.721C288.227 172.721 280.381 164.128 280.381 153.529V76.7647C280.381 66.1657 288.227 57.5735 297.905 57.5735C307.583 57.5735 315.429 66.1657 315.429 76.7647V153.529C315.429 164.128 307.583 172.721 297.905 172.721Z" fill="url(#paint1_linear_14_106)"/>
<path d="M297.905 172.721C288.227 172.721 280.381 164.128 280.381 153.529V76.7647C280.381 66.1657 288.227 57.5735 297.905 57.5735C307.583 57.5735 315.429 66.1657 315.429 76.7647V153.529C315.429 164.128 307.583 172.721 297.905 172.721Z" fill="black" fill-opacity="0.2"/>
<path d="M87.6192 377.426C77.941 377.426 70.0954 368.834 70.0954 358.235V281.471C70.0954 270.872 77.941 262.279 87.6192 262.279C97.2973 262.279 105.143 270.872 105.143 281.471V358.235C105.143 368.834 97.2973 377.426 87.6192 377.426Z" fill="url(#paint2_linear_14_106)"/>
<path d="M87.6192 377.426C77.941 377.426 70.0954 368.834 70.0954 358.235V281.471C70.0954 270.872 77.941 262.279 87.6192 262.279C97.2973 262.279 105.143 270.872 105.143 281.471V358.235C105.143 368.834 97.2973 377.426 87.6192 377.426Z" fill="black" fill-opacity="0.2"/>
<path d="M227.81 415.809C227.81 405.21 235.656 396.618 245.334 396.618C255.012 396.618 262.858 405.21 262.858 415.809C262.858 426.408 255.012 435 245.334 435C235.656 435 227.81 426.408 227.81 415.809Z" fill="url(#paint3_linear_14_106)"/>
<path d="M227.81 415.809C227.81 405.21 235.656 396.618 245.334 396.618C255.012 396.618 262.858 405.21 262.858 415.809C262.858 426.408 255.012 435 245.334 435C235.656 435 227.81 426.408 227.81 415.809Z" fill="black" fill-opacity="0.2"/>
<path d="M352.321 222.887C352.321 212.846 359.754 204.706 368.923 204.706C378.092 204.706 385.524 212.846 385.524 222.887V224.907C385.524 234.948 378.092 243.088 368.923 243.088C359.754 243.088 352.321 234.948 352.321 224.907V222.887Z" fill="url(#paint4_linear_14_106)"/>
<path d="M352.321 222.887C352.321 212.846 359.754 204.706 368.923 204.706C378.092 204.706 385.524 212.846 385.524 222.887V224.907C385.524 234.948 378.092 243.088 368.923 243.088C359.754 243.088 352.321 234.948 352.321 224.907V222.887Z" fill="black" fill-opacity="0.2"/>
<path d="M280.381 222.887C280.381 212.846 287.814 204.706 296.983 204.706C306.152 204.706 313.585 212.846 313.585 222.887V224.907C313.585 234.948 306.152 243.088 296.983 243.088C287.814 243.088 280.381 234.948 280.381 224.907V222.887Z" fill="url(#paint5_linear_14_106)"/>
<path d="M280.381 222.887C280.381 212.846 287.814 204.706 296.983 204.706C306.152 204.706 313.585 212.846 313.585 222.887V224.907C313.585 234.948 306.152 243.088 296.983 243.088C287.814 243.088 280.381 234.948 280.381 224.907V222.887Z" fill="black" fill-opacity="0.2"/>
<path d="M302.517 217.5H363.389V230.294H302.517V217.5Z" fill="url(#paint6_linear_14_106)"/>
<path d="M302.517 217.5H363.389V230.294H302.517V217.5Z" fill="black" fill-opacity="0.2"/>
<path d="M191.84 356.215C182.671 356.215 175.238 348.075 175.238 338.034C175.238 327.993 182.671 319.853 191.84 319.853H193.685C202.853 319.853 210.286 327.993 210.286 338.034C210.286 348.075 202.853 356.215 193.685 356.215H191.84Z" fill="url(#paint7_linear_14_106)"/>
<path d="M191.84 356.215C182.671 356.215 175.238 348.075 175.238 338.034C175.238 327.993 182.671 319.853 191.84 319.853H193.685C202.853 319.853 210.286 327.993 210.286 338.034C210.286 348.075 202.853 356.215 193.685 356.215H191.84Z" fill="black" fill-opacity="0.2"/>
<path d="M191.84 435C182.671 435 175.238 426.86 175.238 416.819C175.238 406.778 182.671 398.638 191.84 398.638H193.685C202.853 398.638 210.286 406.778 210.286 416.819C210.286 426.86 202.853 435 193.685 435H191.84Z" fill="url(#paint8_linear_14_106)"/>
<path d="M191.84 435C182.671 435 175.238 426.86 175.238 416.819C175.238 406.778 182.671 398.638 191.84 398.638H193.685C202.853 398.638 210.286 406.778 210.286 416.819C210.286 426.86 202.853 435 193.685 435H191.84Z" fill="black" fill-opacity="0.2"/>
<path d="M186.921 410.759V344.094H198.604V410.759H186.921Z" fill="url(#paint9_linear_14_106)"/>
<path d="M186.921 410.759V344.094H198.604V410.759H186.921Z" fill="black" fill-opacity="0.2"/>
<path d="M191.84 36.3622C182.671 36.3622 175.238 28.2223 175.238 18.1811C175.238 8.13997 182.671 3.05036e-06 191.84 3.05036e-06H193.685C202.853 3.05036e-06 210.286 8.13997 210.286 18.1811C210.286 28.2223 202.853 36.3622 193.685 36.3622H191.84Z" fill="url(#paint10_linear_14_106)"/>
<path d="M191.84 36.3622C182.671 36.3622 175.238 28.2223 175.238 18.1811C175.238 8.13997 182.671 3.05036e-06 191.84 3.05036e-06H193.685C202.853 3.05036e-06 210.286 8.13997 210.286 18.1811C210.286 28.2223 202.853 36.3622 193.685 36.3622H191.84Z" fill="black" fill-opacity="0.2"/>
<path d="M191.84 115.147C182.671 115.147 175.238 107.007 175.238 96.9659C175.238 86.9248 182.671 78.7848 191.84 78.7848H193.685C202.853 78.7848 210.286 86.9248 210.286 96.9659C210.286 107.007 202.853 115.147 193.685 115.147H191.84Z" fill="url(#paint11_linear_14_106)"/>
<path d="M191.84 115.147C182.671 115.147 175.238 107.007 175.238 96.9659C175.238 86.9248 182.671 78.7848 191.84 78.7848H193.685C202.853 78.7848 210.286 86.9248 210.286 96.9659C210.286 107.007 202.853 115.147 193.685 115.147H191.84Z" fill="black" fill-opacity="0.2"/>
<path d="M186.921 90.9056V24.2415H198.604V90.9056H186.921Z" fill="url(#paint12_linear_14_106)"/>
<path d="M186.921 90.9056V24.2415H198.604V90.9056H186.921Z" fill="black" fill-opacity="0.2"/>
<path d="M71.94 222.887C71.94 212.846 79.3727 204.706 88.5415 204.706C97.7103 204.706 105.143 212.846 105.143 222.887V224.907C105.143 234.948 97.7103 243.088 88.5415 243.088C79.3727 243.088 71.94 234.948 71.94 224.907V222.887Z" fill="url(#paint13_linear_14_106)"/>
<path d="M71.94 222.887C71.94 212.846 79.3727 204.706 88.5415 204.706C97.7103 204.706 105.143 212.846 105.143 222.887V224.907C105.143 234.948 97.7103 243.088 88.5415 243.088C79.3727 243.088 71.94 234.948 71.94 224.907V222.887Z" fill="black" fill-opacity="0.2"/>
<path d="M0 222.887C0 212.846 7.43276 204.706 16.6015 204.706C25.7703 204.706 33.2031 212.846 33.2031 222.887V224.907C33.2031 234.948 25.7703 243.088 16.6015 243.088C7.43276 243.088 0 234.948 0 224.907V222.887Z" fill="url(#paint14_linear_14_106)"/>
<path d="M0 222.887C0 212.846 7.43276 204.706 16.6015 204.706C25.7703 204.706 33.2031 212.846 33.2031 222.887V224.907C33.2031 234.948 25.7703 243.088 16.6015 243.088C7.43276 243.088 0 234.948 0 224.907V222.887Z" fill="black" fill-opacity="0.2"/>
<path d="M22.1354 217.5H83.0077V230.294H22.1354V217.5Z" fill="url(#paint15_linear_14_106)"/>
<path d="M22.1354 217.5H83.0077V230.294H22.1354V217.5Z" fill="black" fill-opacity="0.2"/>
<path d="M303.747 281.471C303.747 270.872 311.592 262.279 321.27 262.279H368.001C377.679 262.279 385.524 270.872 385.524 281.471C385.524 292.07 377.679 300.662 368.001 300.662H321.27C311.592 300.662 303.747 292.07 303.747 281.471Z" fill="url(#paint16_linear_14_106)"/>
<path d="M303.747 281.471C303.747 270.872 311.592 262.279 321.27 262.279H368.001C377.679 262.279 385.524 270.872 385.524 281.471C385.524 292.07 377.679 300.662 368.001 300.662H321.27C311.592 300.662 303.747 292.07 303.747 281.471Z" fill="black" fill-opacity="0.2"/>
<path d="M262.858 275.074H309.588V287.868H262.858V275.074Z" fill="url(#paint17_linear_14_106)"/>
<path d="M262.858 275.074H309.588V287.868H262.858V275.074Z" fill="black" fill-opacity="0.2"/>
<path d="M227.81 281.471C227.81 270.872 235.656 262.279 245.334 262.279C255.012 262.279 262.858 270.872 262.858 281.471C262.858 292.07 255.012 300.662 245.334 300.662C235.656 300.662 227.81 292.07 227.81 281.471Z" fill="url(#paint18_linear_14_106)"/>
<path d="M227.81 281.471C227.81 270.872 235.656 262.279 245.334 262.279C255.012 262.279 262.858 270.872 262.858 281.471C262.858 292.07 255.012 300.662 245.334 300.662C235.656 300.662 227.81 292.07 227.81 281.471Z" fill="black" fill-opacity="0.2"/>
<path d="M303.747 281.471C303.747 270.872 311.592 262.279 321.27 262.279H368.001C377.679 262.279 385.524 270.872 385.524 281.471C385.524 292.07 377.679 300.662 368.001 300.662H321.27C311.592 300.662 303.747 292.07 303.747 281.471Z" fill="url(#paint19_linear_14_106)"/>
<path d="M303.747 281.471C303.747 270.872 311.592 262.279 321.27 262.279H368.001C377.679 262.279 385.524 270.872 385.524 281.471C385.524 292.07 377.679 300.662 368.001 300.662H321.27C311.592 300.662 303.747 292.07 303.747 281.471Z" fill="black" fill-opacity="0.2"/>
<path d="M251.175 275.074H309.588V287.868H251.175V275.074Z" fill="url(#paint20_linear_14_106)"/>
<path d="M251.175 275.074H309.588V287.868H251.175V275.074Z" fill="black" fill-opacity="0.2"/>
<path d="M227.81 281.471C227.81 270.872 235.656 262.279 245.334 262.279C255.012 262.279 262.858 270.872 262.858 281.471C262.858 292.07 255.012 300.662 245.334 300.662C235.656 300.662 227.81 292.07 227.81 281.471Z" fill="url(#paint21_linear_14_106)"/>
<path d="M227.81 281.471C227.81 270.872 235.656 262.279 245.334 262.279C255.012 262.279 262.858 270.872 262.858 281.471C262.858 292.07 255.012 300.662 245.334 300.662C235.656 300.662 227.81 292.07 227.81 281.471Z" fill="black" fill-opacity="0.2"/>
<path d="M81.7779 153.529C81.7779 164.128 73.9322 172.721 64.2541 172.721H17.5238C7.84569 172.721 0 164.128 0 153.529C0 142.93 7.84569 134.338 17.5238 134.338H64.2541C73.9322 134.338 81.7779 142.93 81.7779 153.529Z" fill="url(#paint22_linear_14_106)"/>
<path d="M81.7779 153.529C81.7779 164.128 73.9322 172.721 64.2541 172.721H17.5238C7.84569 172.721 0 164.128 0 153.529C0 142.93 7.84569 134.338 17.5238 134.338H64.2541C73.9322 134.338 81.7779 142.93 81.7779 153.529Z" fill="black" fill-opacity="0.2"/>
<path d="M134.349 159.926H70.0954V147.132H134.349V159.926Z" fill="url(#paint23_linear_14_106)"/>
<path d="M134.349 159.926H70.0954V147.132H134.349V159.926Z" fill="black" fill-opacity="0.2"/>
<path d="M157.715 153.529C157.715 164.128 149.869 172.721 140.191 172.721C130.513 172.721 122.667 164.128 122.667 153.529C122.667 142.93 130.513 134.338 140.191 134.338C149.869 134.338 157.715 142.93 157.715 153.529Z" fill="url(#paint24_linear_14_106)"/>
<path d="M157.715 153.529C157.715 164.128 149.869 172.721 140.191 172.721C130.513 172.721 122.667 164.128 122.667 153.529C122.667 142.93 130.513 134.338 140.191 134.338C149.869 134.338 157.715 142.93 157.715 153.529Z" fill="black" fill-opacity="0.2"/>
<path d="M140.191 345.441C149.869 345.441 157.715 354.033 157.715 364.632V415.809C157.715 426.408 149.869 435 140.191 435C130.513 435 122.667 426.408 122.667 415.809V364.632C122.667 354.033 130.513 345.441 140.191 345.441Z" fill="url(#paint25_linear_14_106)"/>
<path d="M140.191 345.441C149.869 345.441 157.715 354.033 157.715 364.632V415.809C157.715 426.408 149.869 435 140.191 435C130.513 435 122.667 426.408 122.667 415.809V364.632C122.667 354.033 130.513 345.441 140.191 345.441Z" fill="black" fill-opacity="0.2"/>
<path d="M146.032 287.868V377.426H134.349V287.868H146.032Z" fill="url(#paint26_linear_14_106)"/>
<path d="M146.032 287.868V377.426H134.349V287.868H146.032Z" fill="black" fill-opacity="0.2"/>
<path d="M140.191 262.279C149.869 262.279 157.715 270.872 157.715 281.471C157.715 292.07 149.869 300.662 140.191 300.662C130.513 300.662 122.667 292.07 122.667 281.471C122.667 270.872 130.513 262.279 140.191 262.279Z" fill="url(#paint27_linear_14_106)"/>
<path d="M140.191 262.279C149.869 262.279 157.715 270.872 157.715 281.471C157.715 292.07 149.869 300.662 140.191 300.662C130.513 300.662 122.667 292.07 122.667 281.471C122.667 270.872 130.513 262.279 140.191 262.279Z" fill="black" fill-opacity="0.2"/>
<path d="M245.334 89.5588C235.656 89.5588 227.81 80.9666 227.81 70.3676V19.1912C227.81 8.59218 235.656 0 245.334 0C255.012 0 262.858 8.59218 262.858 19.1912V70.3676C262.858 80.9666 255.012 89.5588 245.334 89.5588Z" fill="url(#paint28_linear_14_106)"/>
<path d="M245.334 89.5588C235.656 89.5588 227.81 80.9666 227.81 70.3676V19.1912C227.81 8.59218 235.656 0 245.334 0C255.012 0 262.858 8.59218 262.858 19.1912V70.3676C262.858 80.9666 255.012 89.5588 245.334 89.5588Z" fill="black" fill-opacity="0.2"/>
<path d="M239.492 153.529V57.5735H251.175V153.529H239.492Z" fill="url(#paint29_linear_14_106)"/>
<path d="M239.492 153.529V57.5735H251.175V153.529H239.492Z" fill="black" fill-opacity="0.2"/>
<path d="M245.334 172.721C235.656 172.721 227.81 164.128 227.81 153.529C227.81 142.93 235.656 134.338 245.334 134.338C255.012 134.338 262.858 142.93 262.858 153.529C262.858 164.128 255.012 172.721 245.334 172.721Z" fill="url(#paint30_linear_14_106)"/>
<path d="M245.334 172.721C235.656 172.721 227.81 164.128 227.81 153.529C227.81 142.93 235.656 134.338 245.334 134.338C255.012 134.338 262.858 142.93 262.858 153.529C262.858 164.128 255.012 172.721 245.334 172.721Z" fill="black" fill-opacity="0.2"/>
<path d="M350.477 153.529C350.477 142.93 358.322 134.338 368.001 134.338C377.679 134.338 385.524 142.93 385.524 153.529C385.524 164.128 377.679 172.721 368.001 172.721C358.322 172.721 350.477 164.128 350.477 153.529Z" fill="url(#paint31_linear_14_106)"/>
<path d="M350.477 153.529C350.477 142.93 358.322 134.338 368.001 134.338C377.679 134.338 385.524 142.93 385.524 153.529C385.524 164.128 377.679 172.721 368.001 172.721C358.322 172.721 350.477 164.128 350.477 153.529Z" fill="black" fill-opacity="0.2"/>
<path d="M122.667 19.1912C122.667 8.59218 130.513 0 140.191 0C149.869 0 157.715 8.59218 157.715 19.1912C157.715 29.7902 149.869 38.3824 140.191 38.3824C130.513 38.3824 122.667 29.7902 122.667 19.1912Z" fill="url(#paint32_linear_14_106)"/>
<path d="M122.667 19.1912C122.667 8.59218 130.513 0 140.191 0C149.869 0 157.715 8.59218 157.715 19.1912C157.715 29.7902 149.869 38.3824 140.191 38.3824C130.513 38.3824 122.667 29.7902 122.667 19.1912Z" fill="black" fill-opacity="0.2"/>
<path d="M0 281.471C0 270.872 7.84569 262.279 17.5238 262.279C27.202 262.279 35.0477 270.872 35.0477 281.471C35.0477 292.07 27.202 300.662 17.5238 300.662C7.84569 300.662 0 292.07 0 281.471Z" fill="url(#paint33_linear_14_106)"/>
<path d="M0 281.471C0 270.872 7.84569 262.279 17.5238 262.279C27.202 262.279 35.0477 270.872 35.0477 281.471C35.0477 292.07 27.202 300.662 17.5238 300.662C7.84569 300.662 0 292.07 0 281.471Z" fill="black" fill-opacity="0.2"/>
<path d="M227.81 345.441C227.81 334.842 235.656 326.25 245.334 326.25H315.429C325.107 326.25 332.953 334.842 332.953 345.441C332.953 356.04 325.107 364.632 315.429 364.632H245.334C235.656 364.632 227.81 356.04 227.81 345.441Z" fill="url(#paint34_linear_14_106)"/>
<path d="M227.81 345.441C227.81 334.842 235.656 326.25 245.334 326.25H315.429C325.107 326.25 332.953 334.842 332.953 345.441C332.953 356.04 325.107 364.632 315.429 364.632H245.334C235.656 364.632 227.81 356.04 227.81 345.441Z" fill="black" fill-opacity="0.2"/>
<path d="M432.463 238.214V57.4351H486.6C499.169 57.4351 509.443 59.9949 517.423 65.1146C525.454 70.1755 531.4 77.0313 535.259 85.6818C539.119 94.3324 541.049 103.983 541.049 114.635C541.049 125.286 539.119 134.967 535.259 143.676C531.452 152.385 525.559 159.329 517.579 164.508C509.6 169.628 499.377 172.188 486.912 172.188H448.11V152.768H486.287C494.892 152.768 501.802 151.091 507.018 147.736C512.233 144.382 516.015 139.851 518.361 134.143C520.761 128.376 521.96 121.873 521.96 114.635C521.96 107.397 520.761 100.923 518.361 95.2151C516.015 89.5069 512.207 85.0345 506.94 81.7979C501.672 78.5024 494.683 76.8547 485.974 76.8547H451.865V238.214H432.463Z" fill="#2C2E3C"/>
<path d="M572.302 238.214V57.4351H626.438C638.955 57.4351 649.23 59.8478 657.261 64.6733C665.293 69.4399 671.239 76.0014 675.098 84.3577C678.958 92.7141 680.887 102.218 680.887 112.869C680.887 123.521 678.958 132.966 675.098 141.204C671.239 149.443 665.319 155.916 657.34 160.624C649.36 165.273 639.164 167.597 626.751 167.597H582.942V147.825H626.125C634.679 147.825 641.563 146.412 646.778 143.588C652.046 140.763 655.853 136.761 658.2 131.583C660.599 126.345 661.799 120.108 661.799 112.869C661.799 105.631 660.599 99.305 658.2 93.891C655.801 88.4771 651.968 84.2989 646.7 81.3565C641.433 78.3553 634.47 76.8547 625.812 76.8547H591.703V238.214H572.302ZM647.717 157.005L687.146 238.214H664.615L625.812 157.005H647.717Z" fill="#2C2E3C"/>
<path d="M848.4 147.825C848.4 166.891 845.349 183.368 839.247 197.256C833.145 211.144 824.774 221.855 814.135 229.387C803.495 236.92 791.344 240.686 777.679 240.686C764.015 240.686 751.863 236.92 741.223 229.387C730.584 221.855 722.213 211.144 716.111 197.256C710.009 183.368 706.958 166.891 706.958 147.825C706.958 128.758 710.009 112.281 716.111 98.3929C722.213 84.5049 730.584 73.7946 741.223 66.2622C751.863 58.7297 764.015 54.9635 777.679 54.9635C791.344 54.9635 803.495 58.7297 814.135 66.2622C824.774 73.7946 833.145 84.5049 839.247 98.3929C845.349 112.281 848.4 128.758 848.4 147.825ZM829.625 147.825C829.625 132.171 827.304 118.96 822.662 108.191C818.073 97.4219 811.84 89.2715 803.965 83.7399C796.142 78.2082 787.38 75.4424 777.679 75.4424C767.978 75.4424 759.19 78.2082 751.315 83.7399C743.492 89.2715 737.26 97.4219 732.618 108.191C728.028 118.96 725.733 132.171 725.733 147.825C725.733 163.478 728.028 176.689 732.618 187.458C737.26 198.227 743.492 206.378 751.315 211.91C759.19 217.441 767.978 220.207 777.679 220.207C787.38 220.207 796.142 217.441 803.965 211.91C811.84 206.378 818.073 198.227 822.662 187.458C827.304 176.689 829.625 163.478 829.625 147.825Z" fill="#2C2E3C"/>
<path d="M881.023 238.214V57.4351H935.159C947.728 57.4351 958.002 59.9949 965.982 65.1146C974.014 70.1755 979.959 77.0313 983.819 85.6818C987.678 94.3324 989.608 103.983 989.608 114.635C989.608 125.286 987.678 134.967 983.819 143.676C980.012 152.385 974.118 159.329 966.139 164.508C958.159 169.628 947.937 172.188 935.472 172.188H896.669V152.768H934.846C943.451 152.768 950.362 151.091 955.577 147.736C960.793 144.382 964.574 139.851 966.921 134.143C969.32 128.376 970.52 121.873 970.52 114.635C970.52 107.397 969.32 100.923 966.921 95.2151C964.574 89.5069 960.767 85.0345 955.499 81.7979C950.232 78.5024 943.243 76.8547 934.533 76.8547H900.424V238.214H881.023Z" fill="#2C2E3C"/>
<path d="M1020.86 238.214V57.4351H1040.26V137.938H1125.69V57.4351H1145.09V238.214H1125.69V157.358H1040.26V238.214H1020.86Z" fill="#2C2E3C"/>
<path d="M1183.93 238.214V57.4351H1280.63V76.8547H1203.34V137.938H1275.62V157.358H1203.34V218.795H1281.88V238.214H1183.93Z" fill="#2C2E3C"/>
<path d="M1306.84 76.8547V57.4351H1427V76.8547H1376.62V238.214H1357.22V76.8547H1306.84Z" fill="#2C2E3C"/>
<path d="M425.612 393.571H416.667L450.665 288.117H459.792L493.79 393.571H484.846L455.548 300.629H454.909L425.612 393.571ZM432.046 353.151H478.411V361.801H432.046V353.151Z" fill="#2C2E3C"/>
<path d="M618.578 288.117V393.571H610.273L555.054 305.264H554.324V393.571H545.79V288.117H554.05L609.451 376.528H610.181V288.117H618.578Z" fill="#2C2E3C"/>
<path d="M679.546 393.571H670.601L704.599 288.117H713.726L747.724 393.571H738.78L709.482 300.629H708.843L679.546 393.571ZM685.98 353.151H732.345V361.801H685.98V353.151Z" fill="#2C2E3C"/>
<path d="M799.725 393.571V288.117H808.258V384.921H852.798V393.571H799.725Z" fill="#2C2E3C"/>
<path d="M894.838 288.117H904.696L932.396 338.167H933.217L960.918 288.117H970.775L937.051 347.898V393.571H928.563V347.898L894.838 288.117Z" fill="#2C2E3C"/>
<path d="M1023.03 296.767V288.117H1090.79V296.767H1061.18V393.571H1052.64V296.767H1023.03Z" fill="#2C2E3C"/>
<path d="M1154.52 288.117V393.571H1145.99V288.117H1154.52Z" fill="#2C2E3C"/>
<path d="M1288.55 321.071H1279.97C1279.33 317.467 1278.18 314.137 1276.5 311.082C1274.86 307.993 1272.79 305.298 1270.3 302.998C1267.8 300.698 1264.97 298.913 1261.81 297.643C1258.65 296.373 1255.22 295.738 1251.54 295.738C1245.64 295.738 1240.25 297.471 1235.39 300.938C1230.55 304.405 1226.67 309.503 1223.75 316.231C1220.86 322.925 1219.41 331.129 1219.41 340.844C1219.41 350.628 1220.86 358.866 1223.75 365.56C1226.67 372.254 1230.55 377.334 1235.39 380.802C1240.25 384.234 1245.64 385.951 1251.54 385.951C1255.22 385.951 1258.65 385.316 1261.81 384.046C1264.97 382.775 1267.8 381.007 1270.3 378.742C1272.79 376.442 1274.86 373.747 1276.5 370.658C1278.18 367.568 1279.33 364.221 1279.97 360.617H1288.55C1287.79 365.457 1286.36 369.971 1284.26 374.159C1282.19 378.313 1279.55 381.952 1276.32 385.075C1273.13 388.199 1269.45 390.636 1265.28 392.387C1261.11 394.138 1256.53 395.013 1251.54 395.013C1243.69 395.013 1236.73 392.799 1230.64 388.371C1224.56 383.908 1219.78 377.626 1216.31 369.525C1212.87 361.424 1211.15 351.863 1211.15 340.844C1211.15 329.825 1212.87 320.265 1216.31 312.163C1219.78 304.062 1224.56 297.797 1230.64 293.369C1236.73 288.906 1243.69 286.675 1251.54 286.675C1256.53 286.675 1261.11 287.55 1265.28 289.301C1269.45 291.018 1273.13 293.455 1276.32 296.613C1279.55 299.737 1282.19 303.376 1284.26 307.529C1286.36 311.683 1287.79 316.197 1288.55 321.071Z" fill="#2C2E3C"/>
<path d="M1395.33 314.481C1394.81 308.61 1392.51 303.942 1388.43 300.475C1384.36 297.008 1379.23 295.274 1373.06 295.274C1368.7 295.274 1364.87 296.115 1361.56 297.797C1358.27 299.479 1355.68 301.814 1353.8 304.8C1351.94 307.752 1351.01 311.116 1351.01 314.892C1351.01 317.673 1351.55 320.11 1352.61 322.204C1353.68 324.298 1355.11 326.1 1356.9 327.611C1358.73 329.087 1360.73 330.357 1362.92 331.421C1365.15 332.485 1367.38 333.378 1369.63 334.099L1379.49 337.291C1382.47 338.218 1385.45 339.402 1388.43 340.844C1391.42 342.286 1394.14 344.105 1396.6 346.302C1399.1 348.465 1401.09 351.125 1402.58 354.283C1404.1 357.407 1404.86 361.166 1404.86 365.56C1404.86 371.19 1403.57 376.253 1400.98 380.75C1398.4 385.247 1394.69 388.817 1389.85 391.46C1385.01 394.069 1379.22 395.374 1372.46 395.374C1366.1 395.374 1360.58 394.189 1355.9 391.821C1351.21 389.418 1347.53 386.105 1344.85 381.883C1342.18 377.661 1340.67 372.769 1340.33 367.208H1349.1C1349.4 371.361 1350.62 374.88 1352.75 377.764C1354.88 380.647 1357.65 382.844 1361.05 384.354C1364.46 385.831 1368.26 386.569 1372.46 386.569C1377.12 386.569 1381.25 385.693 1384.87 383.943C1388.53 382.157 1391.39 379.686 1393.45 376.528C1395.55 373.335 1396.6 369.628 1396.6 365.406C1396.6 361.836 1395.78 358.849 1394.14 356.446C1392.5 354.009 1390.2 351.966 1387.25 350.319C1384.33 348.671 1380.93 347.212 1377.07 345.942L1365.89 342.234C1358.56 339.763 1352.87 336.347 1348.82 331.988C1344.78 327.628 1342.75 322.067 1342.75 315.304C1342.75 309.64 1344.09 304.663 1346.77 300.372C1349.48 296.047 1353.13 292.682 1357.72 290.28C1362.35 287.842 1367.53 286.624 1373.28 286.624C1379.09 286.624 1384.24 287.825 1388.71 290.228C1393.18 292.631 1396.72 295.944 1399.34 300.166C1401.99 304.354 1403.4 309.125 1403.59 314.481H1395.33Z" fill="#2C2E3C"/>
<defs>
<linearGradient id="paint0_linear_14_106" x1="151.348" y1="22.3897" x2="352.292" y2="670.96" gradientUnits="userSpaceOnUse">
<stop stop-color="#869BC5"/>
<stop offset="1" stop-color="#16182F"/>
</linearGradient>
<linearGradient id="paint1_linear_14_106" x1="151.348" y1="22.3897" x2="352.292" y2="670.96" gradientUnits="userSpaceOnUse">
<stop stop-color="#869BC5"/>
<stop offset="1" stop-color="#16182F"/>
</linearGradient>
<linearGradient id="paint2_linear_14_106" x1="151.348" y1="22.3897" x2="352.292" y2="670.96" gradientUnits="userSpaceOnUse">
<stop stop-color="#869BC5"/>
<stop offset="1" stop-color="#16182F"/>
</linearGradient>
<linearGradient id="paint3_linear_14_106" x1="151.348" y1="22.3897" x2="352.292" y2="670.96" gradientUnits="userSpaceOnUse">
<stop stop-color="#869BC5"/>
<stop offset="1" stop-color="#16182F"/>
</linearGradient>
<linearGradient id="paint4_linear_14_106" x1="151.348" y1="22.3897" x2="352.292" y2="670.96" gradientUnits="userSpaceOnUse">
<stop stop-color="#869BC5"/>
<stop offset="1" stop-color="#16182F"/>
</linearGradient>
<linearGradient id="paint5_linear_14_106" x1="151.348" y1="22.3897" x2="352.292" y2="670.96" gradientUnits="userSpaceOnUse">
<stop stop-color="#869BC5"/>
<stop offset="1" stop-color="#16182F"/>
</linearGradient>
<linearGradient id="paint6_linear_14_106" x1="151.348" y1="22.3897" x2="352.292" y2="670.96" gradientUnits="userSpaceOnUse">
<stop stop-color="#869BC5"/>
<stop offset="1" stop-color="#16182F"/>
</linearGradient>
<linearGradient id="paint7_linear_14_106" x1="151.348" y1="22.3897" x2="352.292" y2="670.96" gradientUnits="userSpaceOnUse">
<stop stop-color="#869BC5"/>
<stop offset="1" stop-color="#16182F"/>
</linearGradient>
<linearGradient id="paint8_linear_14_106" x1="151.348" y1="22.3897" x2="352.292" y2="670.96" gradientUnits="userSpaceOnUse">
<stop stop-color="#869BC5"/>
<stop offset="1" stop-color="#16182F"/>
</linearGradient>
<linearGradient id="paint9_linear_14_106" x1="151.348" y1="22.3897" x2="352.292" y2="670.96" gradientUnits="userSpaceOnUse">
<stop stop-color="#869BC5"/>
<stop offset="1" stop-color="#16182F"/>
</linearGradient>
<linearGradient id="paint10_linear_14_106" x1="151.348" y1="22.3897" x2="352.292" y2="670.96" gradientUnits="userSpaceOnUse">
<stop stop-color="#869BC5"/>
<stop offset="1" stop-color="#16182F"/>
</linearGradient>
<linearGradient id="paint11_linear_14_106" x1="151.348" y1="22.3897" x2="352.292" y2="670.96" gradientUnits="userSpaceOnUse">
<stop stop-color="#869BC5"/>
<stop offset="1" stop-color="#16182F"/>
</linearGradient>
<linearGradient id="paint12_linear_14_106" x1="151.348" y1="22.3897" x2="352.292" y2="670.96" gradientUnits="userSpaceOnUse">
<stop stop-color="#869BC5"/>
<stop offset="1" stop-color="#16182F"/>
</linearGradient>
<linearGradient id="paint13_linear_14_106" x1="151.348" y1="22.3897" x2="352.292" y2="670.96" gradientUnits="userSpaceOnUse">
<stop stop-color="#869BC5"/>
<stop offset="1" stop-color="#16182F"/>
</linearGradient>
<linearGradient id="paint14_linear_14_106" x1="151.348" y1="22.3897" x2="352.292" y2="670.96" gradientUnits="userSpaceOnUse">
<stop stop-color="#869BC5"/>
<stop offset="1" stop-color="#16182F"/>
</linearGradient>
<linearGradient id="paint15_linear_14_106" x1="151.348" y1="22.3897" x2="352.292" y2="670.96" gradientUnits="userSpaceOnUse">
<stop stop-color="#869BC5"/>
<stop offset="1" stop-color="#16182F"/>
</linearGradient>
<linearGradient id="paint16_linear_14_106" x1="151.348" y1="22.3897" x2="352.292" y2="670.96" gradientUnits="userSpaceOnUse">
<stop stop-color="#869BC5"/>
<stop offset="1" stop-color="#16182F"/>
</linearGradient>
<linearGradient id="paint17_linear_14_106" x1="151.348" y1="22.3897" x2="352.292" y2="670.96" gradientUnits="userSpaceOnUse">
<stop stop-color="#869BC5"/>
<stop offset="1" stop-color="#16182F"/>
</linearGradient>
<linearGradient id="paint18_linear_14_106" x1="151.348" y1="22.3897" x2="352.292" y2="670.96" gradientUnits="userSpaceOnUse">
<stop stop-color="#869BC5"/>
<stop offset="1" stop-color="#16182F"/>
</linearGradient>
<linearGradient id="paint19_linear_14_106" x1="151.348" y1="22.3897" x2="352.292" y2="670.96" gradientUnits="userSpaceOnUse">
<stop stop-color="#869BC5"/>
<stop offset="1" stop-color="#16182F"/>
</linearGradient>
<linearGradient id="paint20_linear_14_106" x1="151.348" y1="22.3897" x2="352.292" y2="670.96" gradientUnits="userSpaceOnUse">
<stop stop-color="#869BC5"/>
<stop offset="1" stop-color="#16182F"/>
</linearGradient>
<linearGradient id="paint21_linear_14_106" x1="151.348" y1="22.3897" x2="352.292" y2="670.96" gradientUnits="userSpaceOnUse">
<stop stop-color="#869BC5"/>
<stop offset="1" stop-color="#16182F"/>
</linearGradient>
<linearGradient id="paint22_linear_14_106" x1="151.348" y1="22.3897" x2="352.292" y2="670.96" gradientUnits="userSpaceOnUse">
<stop stop-color="#869BC5"/>
<stop offset="1" stop-color="#16182F"/>
</linearGradient>
<linearGradient id="paint23_linear_14_106" x1="151.348" y1="22.3897" x2="352.292" y2="670.96" gradientUnits="userSpaceOnUse">
<stop stop-color="#869BC5"/>
<stop offset="1" stop-color="#16182F"/>
</linearGradient>
<linearGradient id="paint24_linear_14_106" x1="151.348" y1="22.3897" x2="352.292" y2="670.96" gradientUnits="userSpaceOnUse">
<stop stop-color="#869BC5"/>
<stop offset="1" stop-color="#16182F"/>
</linearGradient>
<linearGradient id="paint25_linear_14_106" x1="151.348" y1="22.3897" x2="352.292" y2="670.96" gradientUnits="userSpaceOnUse">
<stop stop-color="#869BC5"/>
<stop offset="1" stop-color="#16182F"/>
</linearGradient>
<linearGradient id="paint26_linear_14_106" x1="151.348" y1="22.3897" x2="352.292" y2="670.96" gradientUnits="userSpaceOnUse">
<stop stop-color="#869BC5"/>
<stop offset="1" stop-color="#16182F"/>
</linearGradient>
<linearGradient id="paint27_linear_14_106" x1="151.348" y1="22.3897" x2="352.292" y2="670.96" gradientUnits="userSpaceOnUse">
<stop stop-color="#869BC5"/>
<stop offset="1" stop-color="#16182F"/>
</linearGradient>
<linearGradient id="paint28_linear_14_106" x1="151.348" y1="22.3897" x2="352.292" y2="670.96" gradientUnits="userSpaceOnUse">
<stop stop-color="#869BC5"/>
<stop offset="1" stop-color="#16182F"/>
</linearGradient>
<linearGradient id="paint29_linear_14_106" x1="151.348" y1="22.3897" x2="352.292" y2="670.96" gradientUnits="userSpaceOnUse">
<stop stop-color="#869BC5"/>
<stop offset="1" stop-color="#16182F"/>
</linearGradient>
<linearGradient id="paint30_linear_14_106" x1="151.348" y1="22.3897" x2="352.292" y2="670.96" gradientUnits="userSpaceOnUse">
<stop stop-color="#869BC5"/>
<stop offset="1" stop-color="#16182F"/>
</linearGradient>
<linearGradient id="paint31_linear_14_106" x1="151.348" y1="22.3897" x2="352.292" y2="670.96" gradientUnits="userSpaceOnUse">
<stop stop-color="#869BC5"/>
<stop offset="1" stop-color="#16182F"/>
</linearGradient>
<linearGradient id="paint32_linear_14_106" x1="151.348" y1="22.3897" x2="352.292" y2="670.96" gradientUnits="userSpaceOnUse">
<stop stop-color="#869BC5"/>
<stop offset="1" stop-color="#16182F"/>
</linearGradient>
<linearGradient id="paint33_linear_14_106" x1="151.348" y1="22.3897" x2="352.292" y2="670.96" gradientUnits="userSpaceOnUse">
<stop stop-color="#869BC5"/>
<stop offset="1" stop-color="#16182F"/>
</linearGradient>
<linearGradient id="paint34_linear_14_106" x1="151.348" y1="22.3897" x2="352.292" y2="670.96" gradientUnits="userSpaceOnUse">
<stop stop-color="#869BC5"/>
<stop offset="1" stop-color="#16182F"/>
</linearGradient>
</defs>
</svg>
